<svg xmlns="http://www.w3.org/2000/svg" viewBox="0 0 183.78 221.13"><defs><style>.cls-1{fill:#fff;}.cls-1,.cls-10,.cls-2,.cls-3,.cls-6,.cls-7,.cls-8,.cls-9{stroke:#231815;}.cls-1,.cls-10,.cls-3,.cls-5,.cls-6,.cls-7,.cls-8,.cls-9{stroke-linecap:round;}.cls-1,.cls-10,.cls-2,.cls-3,.cls-5,.cls-6,.cls-7,.cls-8,.cls-9{stroke-linejoin:round;}.cls-2,.cls-4{fill:#ed7980;}.cls-3{fill:#1e1822;}.cls-5,.cls-6,.cls-8,.cls-9{fill:none;}.cls-5{stroke:#da6f7e;stroke-width:0.99px;}.cls-6,.cls-7{stroke-width:0.85px;}.cls-10,.cls-7{fill:#27272d;}.cls-8{stroke-width:0.99px;}.cls-9{stroke-width:2.41px;}</style></defs><title>アセット 1</title><g id="レイヤー_2" data-name="レイヤー 2"><g id="_01" data-name="01"><path class="cls-1" d="M80.94,188.1l0,4.52a2.68,2.68,0,0,0,.16,1.13,2.36,2.36,0,0,0,.6.77,6.85,6.85,0,0,0,11.16-7.07"/><path class="cls-1" d="M76.46,192.06c-.92.8-4.83,5.93-5.26,7.3-.39,1.22-.1,7.41,1.41,7.4.34,0,7.28-9.37,9.27-12.61-1.1-1-1.24-3.46-.94-4.93A23.63,23.63,0,0,0,76.46,192.06Z"/><path class="cls-1" d="M81.88,194.15c.24,4.33.46,7.14,1.91,11.17.24.66,1.37,3.37,2,3.64s3.39-.53,4.15-.86c8.32-3.57,9.12-12.77,8.19-14.31-.36-.59-3.89-5.38-4.38-4.35C91.91,193.31,84.29,194.86,81.88,194.15Z"/><path class="cls-2" d="M16.78,173.66A41.55,41.55,0,0,1,5.26,196a28.71,28.71,0,0,0,16-13.48,28.63,28.63,0,0,0,12.35,29.82,22.83,22.83,0,0,1,.77-16,16.9,16.9,0,0,0,8.41,16.57c-.51-1.87-.13-3.78-.64-5.65a74.42,74.42,0,0,0,10.61-6.38c3.29-2.5,6.5-4.62,8.2-8.39l-5.78,14.92c6.76-1.33,12.73-6.79,17.12-12.11s5.14-13.84,14.48-13.42c.87,0,1.69-.55,2.56-.44a5.53,5.53,0,0,1,2.26,1,20.36,20.36,0,0,1,5.09,29,33.89,33.89,0,0,0,15.18-8.73l-3.52,6.8a36.41,36.41,0,0,0,15.5-15,49.68,49.68,0,0,1-7.17,22.71c9.44-2.52,19.78-5.68,24.94-14a56.91,56.91,0,0,1-8,15.75,47.48,47.48,0,0,0,22-26.66,25.53,25.53,0,0,0,20.89,15.95c-4.94-2.95-7.87-8.37-9.68-13.83-5.59-16.86-2.56-35,1.17-51.87A167.69,167.69,0,0,0,171,91a75,75,0,0,0-8-27.16c-21-41-62.48-38.82-80.92-36.42s-32.89,9.89-46.2,22.88C23.35,62.61,16.51,74.47,13.35,91.76s-2.19,33.86,2.39,56C16.65,152.17,18.31,165.28,16.78,173.66Z"/><path class="cls-3" d="M35.58,75.31c-4.29,17.06.06,50.51,2.23,66.61,1.14,8.43-9.47,15.74-3.64,26.4-6.87-2-17-9.92-21.46-15.55S0,132.65,2.48,122.21C2.62,121.65,16.86,95.94,35.58,75.31Z"/><path class="cls-1" d="M33.4,169.61a74.58,74.58,0,0,1-24.64-26.1c-10.12-18.06-2.56-27.29-7-21.8C-3.37,128,7.36,159.28,33.4,169.61Z"/><path class="cls-2" d="M14.59,125.18C14.74,155.6,26.94,177.31,34,185c0,0-2.51-17.42-2.51-30.92"/><path class="cls-1" d="M141.79,169.47c-39.7,29.67-75.21,17.47-89.35,11.66-5.31-2.18-11.58-4.94-15.59-9.06s-6.74-9.75-6.33-15.48,2.86-8.89,3.92-14.66c1.18-6.45-2.56-12.27-5.58-18.09a51.16,51.16,0,0,1-4-36.37c8.15-30.41,31-47.8,64.34-53,13.39-2.08,27.4-.27,40.29,3.94,21.64,7.07,31.71,25.94,36.63,48.18s.53,37.37-2.29,51.43C162.11,146.46,148.66,164.34,141.79,169.47Z"/><path class="cls-4" d="M21.41,72.93C61,15.07,113.89,27.55,129.68,34.68,143.62,41,154.91,52.51,162,66.06s8.71,27.75,7.82,43c-2,33.48-29.05,51.52-28.85,42.77.58-26.23,4.71-44.63-5.82-64-4.49-8.25-12.1-25.29-20.83-21.8C70.65,83.51,76.22,40.9,42.66,91.41"/><path class="cls-3" d="M181.94,130.23s1.76,6.34-9.27,17.43c-14.6,14.7-33,21.58-39.76,22.76,8.57-17.23,9.47-35.87,13.34-54.65,2-9.57,2.58-41.95,2.58-41.95C163.26,91.21,181.94,130.23,181.94,130.23Z"/><path class="cls-1" d="M181.56,129.48s.41-1.49,1.61,2.42c2,6.51-23.46,34.85-49.24,38.32C173.72,153.48,181.56,129.48,181.56,129.48Z"/><path class="cls-2" d="M22.86,71.81c-13.95,22.12-12.79,50.8-4.3,69.76,4.39,9.8,13.21,17.35,13.21,17.35a158.51,158.51,0,0,1-4-23.1c1.81,4.71,7.55,14.26,11.57,17.33-10.15-29.22,2.32-63.86,28.23-87.53-7.09,18.56,4.75,51.91,21,68.91,13.7-15.08,22.65-36.65,27.85-56.36,5.64,23.45,11,53.8,6.1,80.15,5.23-7.3,10-18.47,9.64-27.44,2.63,31.82-5.4,56.19-5.4,56.19,3.94-5.14,27.22-22.93,30.89-70.37C160.17,83.3,145,60.09,145,60.09"/><path class="cls-2" d="M78.32,40.9C64.55,51,60.5,73.42,60.12,81.28c-.49,10-.93,20.14,1.78,29.78s7.64,18.8,14.94,25.66a60.72,60.72,0,0,1-3.73-20.49A60.29,60.29,0,0,0,97,153.15C90.26,131.51,92.34,108,97.69,86"/><path class="cls-5" d="M111.77,158.79a3.36,3.36,0,0,0-1,1.31"/><path class="cls-5" d="M116,159a4.11,4.11,0,0,1-.9,1.29"/><path class="cls-5" d="M44.21,154.15a2.26,2.26,0,0,0-1.45,1.3"/><path class="cls-5" d="M47.87,154.84,46.54,156"/><path class="cls-6" d="M75.05,149.53l-.38.37"/><path class="cls-6" d="M66.8,162.64c6.77,0,27.64-1.74,28.65-1.11,1.36.84,6.42,12.16-.44,16.92"/><path class="cls-7" d="M67.52,166.57a15.5,15.5,0,0,1-.72-3.93s5.38-.06,13.53-.62C81.07,162,72,162.65,67.52,166.57Z"/><path class="cls-8" d="M46.25,103.49a199.15,199.15,0,0,0,17.49,10.3"/><path class="cls-8" d="M100.88,113.79q10.61-2.72,21.43-4.64"/><path class="cls-9" d="M36.39,121.26c9.4,5.06,27.13,15.19,27.13,15.19s-16.7,6.32-25.07,9.38"/><path class="cls-9" d="M129.66,129.2C119.31,131.79,99.88,137,99.88,137s19.69,13.07,27.06,18.11"/><path class="cls-10" d="M75,203.79c-2.37,3-5.76,12.54-5.71,12.76.44,1.91,4.69,2.59,5.53,2.63.6,0,1.16-2.39,2.11-5.39,1.63-5.11,1.21-5.92,4-12.27a15.19,15.19,0,0,0,.79-2.67c.64-3.49-2.5-.31-3.39.6C76.68,201.15,76.47,201.93,75,203.79Z"/><path class="cls-10" d="M79.93,202.12A47,47,0,0,0,80.05,219a2,2,0,0,0,.78,1.51,2.11,2.11,0,0,0,1.3.13c1.59-.16,3.19-.75,4.78-.92,0,0-2.08-12.76-2.3-14-.32-1.73-.47-5.48-1.71-6.84S80.2,200.7,79.93,202.12Z"/><path class="cls-10" d="M70.79,201.09a3.86,3.86,0,0,0-.93,1,3.53,3.53,0,0,0-.29,1.85A11.2,11.2,0,0,0,71,208.84a1.58,1.58,0,0,0,.74.77c.69.27,1.36-.4,1.79-1,2.18-3,4.13-6.18,6.07-9.35.42-.69,1.85-2.68,1.48-3.58-.52-1.26-2.19.07-3.06.52A35.78,35.78,0,0,0,70.79,201.09Z"/><path class="cls-10" d="M84.25,195.48c1,.39,7.25,14,5.68,15.14a53.7,53.7,0,0,1-6.57.53,1.18,1.18,0,0,1-.43-.89,76.62,76.62,0,0,1-.84-10.15C82.06,198.67,80.52,194.06,84.25,195.48Z"/><path class="cls-10" d="M78.31,199.91l3.36.52a.4.4,0,0,0,.34,0,.42.42,0,0,0,.12-.26c.32-1.7.74-3.43.93-5.15a3.43,3.43,0,0,0-3.1.57C79.56,195.91,77.83,199.83,78.31,199.91Z"/><path class="cls-2" d="M97,23.36c2.19-14.28,8-22.86,8-22.86S87.08,4.25,97,23.36Z"/></g></g></svg>