<svg xmlns="http://www.w3.org/2000/svg" viewBox="0 0 621.52 92.88"><defs><style>.cls-1{fill:#49a9a4;}.cls-2{fill:#c45c66;}.cls-3{fill:#30353a;}</style></defs><title>title</title><g id="レイヤー_2" data-name="レイヤー 2"><g id="member-page"><rect class="cls-1" y="61.41" width="621.52" height="31.47"/><path class="cls-2" d="M94.19,73.08c-2.7-7.2-5.4-14.22-10.53-20.43L58.2,84.15,47.31,75.51,72.87,43.65c.09-.09,0-.09-.27-.18-6-4-13-5.76-20.52-7.74L56,22.14c9.18,2.25,18.27,5.22,25.91,10.62L98.24,12.15,92.75,7.74,99.14,0l16.65,13L92.57,41.67c6.75,7.74,10.89,16.11,14.94,26.82Z"/><path class="cls-3" d="M135.33,16.56l7.29-12.33,30.6,17.19L166,33.93Zm5.4,64L136,61.92l9.72-2.43,1.26,4.77c22.32-7.2,39.23-21.42,51.29-42.39l12.69,7.29c-7.74,13.32-16.56,24.57-28.71,33.3C169.8,71.37,155.85,77,140.73,80.55Z"/><path class="cls-3" d="M219,74.88l26.73-71.1,13.68,4.68L232.53,80.28Zm74.42-3.15c-6.75-4.41-12.51-8.73-17.64-14.67a57.9,57.9,0,0,1-11.42-18.9c-2-5.31-2.88-10.8-4-16.47L282,18l1.62,9.72-7.11,1.08c4.32,16.74,18.9,27.09,25,31.23Zm-14-55.35L277,3.06l8.55-1.62,2.61,13.32Zm12.15,4.95L289.31,8,298,6.39l2.16,13.32Z"/><path class="cls-3" d="M387.59,35V49.59h-75V35Z"/><path class="cls-2" d="M397.86,77.13c1.26-8.55,2.16-16.65,2.61-24.39l7.92.54c-.45,8.28-1.26,16.65-2.52,25.2ZM398,22.86l4.77-13.41c.63.72,2.16,2.7,2.79,3.51C407.4,8.73,409,4.68,410.37.81L421,4.05c-2.7,6.39-5.58,12.6-8.46,18.27a19.48,19.48,0,0,0,1.44,2c3.24-5.67,5.85-10.35,7.74-14.13L432,14c-2.61,4.77-5.31,9.63-8.19,14.67L430.26,27l2.34,8.46c7.64-4,12.33-10.62,14.13-20.25H433.05V4.14h47.51c0,14-.36,22.05-1.44,27.81-1.71,8.64-4.68,9.36-11.07,9.54-3.51.09-8.19-.18-13.86-.45l-.27-8.64a33.73,33.73,0,0,1-13.49,12.87H479v36.9H465.35V78.39H447.53v3.78H434.58v-33l-7.11,1.44-.54-2.16-4.14.27V82.62H409.56V49.68l-10.26.72-.36-12.6,7-.45c.27-.45,1.08-1.71,1.44-2.25Zm24.57,7.83-3.69,5.94,5-.36Zm2.52,44.55q-.4-9.72-1.35-22.41l7.38-.81c.72,7.11,1.26,14.67,1.61,22.77Zm13.14-30-5.4-8.1q.94,3.38,1.89,8.1Zm9.26,10.89V68h17.82V56.16Zm19.35-40.95h-7.29A43.59,43.59,0,0,1,455.18,30c4.86.27,7.56.36,8,.36C465.71,30.33,466.88,28.89,466.88,15.21Z"/><path class="cls-3" d="M555.08,81.54H540.77V28.89h11.07a131,131,0,0,1-21.78-17.82,131,131,0,0,1-21.77,17.82h12.42v8.64c0,27.18-4.68,34.92-22.41,44.91l-7.92-11.07c13.32-7.2,16.29-12.15,16.29-33.84V30c-4.86,3-9.63,5.67-14.4,8l-5.13-11.43a138.34,138.34,0,0,0,33.93-24.3h18A138.34,138.34,0,0,0,573,26.55L567.86,38c-4.59-2.25-8.82-4.59-12.78-6.93Z"/></g></g></svg>