<svg xmlns="http://www.w3.org/2000/svg" viewBox="0 0 138.41 148.87"><defs><style>.cls-1{fill:#c45c66;}</style></defs><title>1</title><g id="レイヤー_2" data-name="レイヤー 2"><g id="load-view"><g id="logo"><path class="cls-1" d="M64.39,17.32,42.24,9c-.23-.09-.44-.15-.64-.22l1.56-4.88a.48.48,0,0,0-.31-.6l-2.09-.67a.48.48,0,0,0-.6.31L35.53,17.42.4,124.68c-.92,2.77-.26,4.51,2,5.23l33.53,12.61a5.12,5.12,0,0,0,.64.2l-1,4.72a1,1,0,0,0,.74,1.15l1.19.26a1,1,0,0,0,1.14-.74l3-14.06L66.08,21.47C66.7,19.32,66.13,17.93,64.39,17.32Z"/><path class="cls-1" d="M128.73,130.83l-2.89-6.53c0-.08,0-.16-.08-.23L94.69,52.39q-.78-2.46-4-1.85L70.85,54.85h0l-1-4.23a.48.48,0,0,0-.57-.36l-2.14.49a.48.48,0,0,0-.36.57l2,8.8,17.59,80.24c.51,2.15,1.75,2.92,3.69,2.31l34.05-14.51,1.73,3.92a1,1,0,0,0,1.28.49l1.11-.49A1,1,0,0,0,128.73,130.83Z"/><path class="cls-1" d="M98.87,46.11l-1.63-3.49A19.67,19.67,0,0,0,78.6,31.3l-4,.17h0A25.54,25.54,0,0,0,89.22,7.19h0A25.57,25.57,0,0,0,113.5,21.83h0A25.15,25.15,0,0,0,98.85,45.61Z"/><path class="cls-1" d="M121.25,30.86l-.24-3a15.24,15.24,0,0,0-10.49-13.23l-3-1h0A19.82,19.82,0,0,0,124.72,0h0a19.78,19.78,0,0,0,13.69,17.16h0a19.49,19.49,0,0,0-17,13.33Z"/></g></g></g></svg>