<svg xmlns="http://www.w3.org/2000/svg" viewBox="0 0 86.94 116.2"><defs><style>.cls-1{fill:#30353a;}</style></defs><title>4</title><g id="レイヤー_2" data-name="レイヤー 2"><g id="load-view"><g id="logo"><path class="cls-1" d="M85.64,50.64,53,40.85l.12-3.29,1.52-37a.48.48,0,0,0-.46-.5L52,0a.47.47,0,0,0-.5.46l-.25,6L17.34,4.65c-1.95-.2-2.77.77-2.46,2.93l3.21,22.81-1.55-.46L1.26,25.24a.46.46,0,0,0-.59.31L0,27.65a.47.47,0,0,0,.32.59L5.8,29.92,3.65,69.41Q3.5,72.34,6.42,72l17.38-.91,6,42.75q.46,2.61,3.54,2.31l14.15-1.23a3,3,0,0,0,2.92-3.23l1.52-42.08,10-.53L60,88.79c-.1,1.64.82,2.46,2.77,2.46l10.69-1.1-1.26,4.63A1,1,0,0,0,72.84,96l1.17.32a1,1,0,0,0,1.18-.67L77,88.79a2.06,2.06,0,0,0,.14-.46l9.53-35.07C87.23,51.93,86.87,51.06,85.64,50.64Z"/></g></g></g></svg>