<svg xmlns="http://www.w3.org/2000/svg" viewBox="0 0 122.73 138.25"><defs><style>.cls-1{fill:#30353a;}</style></defs><title>5</title><g id="レイヤー_2" data-name="レイヤー 2"><g id="load-view"><g id="logo"><path class="cls-1" d="M44.65,59.55l-20.3-4q-3.08-.61-4,2L11.81,87.62a.45.45,0,0,0-.06.12L0,128.13a1,1,0,0,0,.66,1.2l1.17.34A1,1,0,0,0,3.06,129l1.25-4.33,32,9c2.25.61,3.59,0,4-1.85L47.42,64Q48,60.32,44.65,59.55Z"/><path class="cls-1" d="M122.64,121.84l-6-21.38a6.75,6.75,0,0,0-.19-.68l5.36-.83a.47.47,0,0,0,.4-.54l-.33-2.17a.48.48,0,0,0-.55-.4l-32.57,5-2.27.34,6.92-86.59Q93.88,11,90,10.48L50.5,5.1a8.4,8.4,0,0,0-1.38-.19L48.65.43A.47.47,0,0,0,48.13,0L45.94.23a.48.48,0,0,0-.42.53l1.15,10.89,12.13,124c.11,2.25,1.18,3,3.23,2.3l57.84-12.3C122.12,125,123.05,123.69,122.64,121.84Z"/></g></g></g></svg>