<svg xmlns="http://www.w3.org/2000/svg" viewBox="0 0 94.41 109.11"><defs><style>.cls-1{fill:#c45c66;}</style></defs><title>7</title><g id="レイヤー_2" data-name="レイヤー 2"><g id="load-view"><g id="logo"><path class="cls-1" d="M5.81,3.46a2.26,2.26,0,0,0,0,.26L9.36,36.33c.2,2.57,1.38,3.59,3.53,3.08L73.34,29.1c1.74-.41,2.62-1.64,2.62-3.69L75,7.41q0-2.76-3.38-2.92L8.89.49H8.83L1.11,0a1,1,0,0,0-1,.91L0,2.12a1,1,0,0,0,.9,1Z"/><path class="cls-1" d="M94.39,81.05,93.72,79a.47.47,0,0,0-.6-.31l-4.43,1.4L87.18,59.4c0-2.25-1.28-3.23-3.84-2.92L4.28,66.79Q.12,67.41.59,70.48L4.89,106c.52,2.56,1.9,3.54,4.16,2.92L75.8,87.44l18.28-5.79A.48.48,0,0,0,94.39,81.05Z"/></g></g></g></svg>