<svg xmlns="http://www.w3.org/2000/svg" viewBox="0 0 95.28 144.35"><defs><style>.cls-1{fill:#30353a;}</style></defs><title>9</title><g id="レイヤー_2" data-name="レイヤー 2"><g id="load-view"><g id="logo"><path class="cls-1" d="M95,58.43a.47.47,0,0,0-.54-.41L70,61.41,43.5,64.8l5-57.44Q48.66,3.22,45,2.9L4.67,4.75a7.09,7.09,0,0,0-1.1.16L3.13.43A.47.47,0,0,0,2.61,0L.43.22A.47.47,0,0,0,0,.74L.75,8.43A8.51,8.51,0,0,0,.82,9.52L12.05,137.18c.1,2.87,1.44,4.15,4,3.85l17.88-2.26-.38,4.43a1,1,0,0,0,.89,1.05l1.21.1a1,1,0,0,0,1-.88l1-12.25,3.37-38.66,41.25,8.63c2.77.92,4.21-.15,4.31-3.23l3.69-34.15a6.23,6.23,0,0,0,0-2l4.55-.63a.47.47,0,0,0,.41-.54Z"/></g></g></g></svg>