<svg xmlns="http://www.w3.org/2000/svg" viewBox="0 0 330.01 380.99"><defs><style>.cls-1,.cls-9{fill:#fff;}.cls-1,.cls-10,.cls-11,.cls-12,.cls-13,.cls-2,.cls-3,.cls-5,.cls-7,.cls-8,.cls-9{stroke:#231815;}.cls-1,.cls-10,.cls-11,.cls-12,.cls-3,.cls-5,.cls-6,.cls-7,.cls-8,.cls-9{stroke-linecap:round;}.cls-1,.cls-10,.cls-11,.cls-12,.cls-13,.cls-3,.cls-5,.cls-6,.cls-7,.cls-8,.cls-9{stroke-linejoin:round;}.cls-13,.cls-2,.cls-4{fill:#ec7980;}.cls-2{stroke-miterlimit:10;}.cls-3{fill:#1d1822;}.cls-5,.cls-8{fill:#27272c;}.cls-10,.cls-6,.cls-7{fill:none;}.cls-6{stroke:#da6e7d;}.cls-11,.cls-6{stroke-width:0.99px;}.cls-7,.cls-8,.cls-9{stroke-width:0.85px;}.cls-10{stroke-width:1.42px;}.cls-11,.cls-12{fill:#231815;}</style></defs><title>girl</title><g id="レイヤー_2" data-name="レイヤー 2"><g id="book-page"><path class="cls-1" d="M150.05,323.52l0,7.83a4.81,4.81,0,0,0,.28,2,4,4,0,0,0,1.07,1.32,12.46,12.46,0,0,0,14.5,1.24A12.11,12.11,0,0,0,171,322.4"/><path class="cls-1" d="M142.19,330.38c-1.61,1.38-8.48,10.26-9.23,12.63-.68,2.12-.17,12.82,2.48,12.82.59,0,12.75-16.24,16.26-21.84-1.94-1.65-2.19-6-1.65-8.53A41,41,0,0,0,142.19,330.38Z"/><path class="cls-1" d="M151.7,334c.42,7.5.79,12.36,3.34,19.34.42,1.14,2.4,5.84,3.54,6.3,1.34.54,5.94-.92,7.28-1.49,14.59-6.19,16-22.1,14.36-24.77-.63-1-6.81-9.32-7.68-7.53C169.28,332.55,155.92,335.23,151.7,334Z"/><path class="cls-2" d="M37.52,298.52C34.83,313,28.06,327,17.33,337.21a50.29,50.29,0,0,0,28-23.34c-4.49,19.36,4.61,41.05,21.65,51.62a39.07,39.07,0,0,1,1.35-27.71A29.16,29.16,0,0,0,83,366.47c-.88-3.24-.22-6.55-1.11-9.79,6.41-3.34,12.85-6.7,18.62-11s11.39-8,14.36-14.53l-10.13,25.82c11.85-2.29,22.33-11.76,30-20.95s9-24,25.4-23.24c1.53.07,3-.95,4.48-.75a9.67,9.67,0,0,1,4,1.73,34.94,34.94,0,0,1,8.92,50.21,59.54,59.54,0,0,0,26.62-15.12L198,360.6a63.61,63.61,0,0,0,27.18-26,85.44,85.44,0,0,1-12.58,39.31c16.56-4.37,34.69-9.84,43.74-24.22A98.49,98.49,0,0,1,242.28,377c18.08-10.16,32.25-26.56,38.52-46.15,5.77,14.92,20.53,26.05,36.63,27.62-8.66-5.11-13.79-14.51-17-23.95-9.81-29.18-4.49-60.54,2.05-89.8A285.94,285.94,0,0,0,308,155.49a128.11,128.11,0,0,0-14-47c-36.81-71-109.56-67.2-141.91-63S94.44,62.54,71.1,85c-22.06,21.25-34,41.79-39.58,71.72s-3.85,58.62,4.18,96.95C37.3,261.32,40.21,284,37.52,298.52Z"/><path class="cls-3" d="M70.49,128.27c-7.51,29.53.11,87.44,3.92,115.3,2,14.6-16.61,27.26-6.39,45.7-12-3.44-29.88-17.16-37.62-26.9S8.12,227.54,12.46,209.45C12.69,208.49,37.67,164,70.49,128.27Z"/><path class="cls-1" d="M66.68,291.51s-26-14.84-43.21-45.18C5.71,215.07,19,199.09,11.15,208.59,2.18,219.49,21,273.62,66.68,291.51Z"/><path class="cls-2" d="M33.69,214.6c.25,52.66,21.65,90.24,34.11,103.5,0,0-4.4-30.15-4.4-53.53"/><path class="cls-1" d="M256.76,291.28c-69.63,51.35-131.89,30.24-156.7,20.18-9.31-3.78-20.31-8.56-27.33-15.69S60.91,278.89,61.61,269c.73-10.13,5-15.39,6.88-25.38,2.08-11.17-4.48-21.24-9.78-31.32a87.5,87.5,0,0,1-7.07-63C65.93,96.68,106,66.58,164.47,57.62c23.5-3.59,48.05-.46,70.65,6.83,38,12.24,55.62,44.91,64.25,83.39s.93,64.69-4,89C292.39,251.43,268.81,282.4,256.76,291.28Z"/><path class="cls-4" d="M45.65,124.16C115.08,24,207.82,45.59,235.52,57.94,260,68.85,279.77,88.8,292.23,112.25s15.28,48.05,13.71,74.49c-3.43,57.94-50.93,89.18-50.59,74,1-45.4,8.26-77.27-10.2-110.74-7.88-14.28-21.22-43.77-36.53-37.74C132,142.46,141.77,68.7,82.92,156.15"/><path class="cls-3" d="M327.17,223.34s3.07,11-16.26,30.18c-25.61,25.44-57.83,37.35-69.72,39.39,15-29.82,16.6-62.09,23.38-94.6,3.46-16.57,4.53-72.62,4.53-72.62C294.4,155.8,327.17,223.34,327.17,223.34Z"/><path class="cls-1" d="M326.5,222.05s.72-2.59,2.82,4.18c3.48,11.28-41.14,60.33-86.34,66.34C312.75,263.59,326.5,222.05,326.5,222.05Z"/><path class="cls-2" d="M48.19,122.22C23.72,160.5,25.76,210.16,40.64,243c7.7,17,23.18,30,23.18,30s-4.35-15.44-7-40C60,241.18,70,257.71,77.07,263c-17.79-50.58,4.06-110.54,49.52-151.53-12.44,32.13,8.32,89.86,36.72,119.3,24-26.11,39.73-63.45,48.84-97.56,9.91,40.58,19.22,93.13,10.7,138.73,9.19-12.62,17.61-32,16.92-47.5,4.6,55.09-9.47,97.28-9.47,97.28,6.91-8.9,47.73-39.7,54.16-121.81,4.53-57.83-22.06-98-22.06-98"/><path class="cls-2" d="M145.46,68.7C121.3,86.22,114.2,125,113.53,138.6c-.85,17.32-1.63,34.87,3.13,51.56s13.39,32.54,26.19,44.41a103.84,103.84,0,0,1-6.54-35.46A104.29,104.29,0,0,0,178.11,263c-11.72-37.47-8.08-78.1,1.31-116.2"/><path class="cls-5" d="M139.62,350.68c-4.16,5.19-10.09,21.71-10,22.09.77,3.31,8.22,4.48,9.69,4.56,1.06.06,2-4.15,3.71-9.34,2.84-8.85,2.11-10.25,7-21.23a24.93,24.93,0,0,0,1.39-4.63c1.12-6.05-4.38-.54-6,1C142.58,346.11,142.2,347.47,139.62,350.68Z"/><path class="cls-5" d="M148.27,347.78c-2.27,11.4-1,21,.22,29.15a3.45,3.45,0,0,0,1.35,2.6,3.76,3.76,0,0,0,2.28.24c2.8-.29,5.6-1.31,8.4-1.6,0,0-3.65-22.08-4.05-24.22-.56-3-.81-9.49-3-11.84C151.46,340,148.75,345.34,148.27,347.78Z"/><path class="cls-5" d="M132.24,346a6.57,6.57,0,0,0-1.63,1.82,5.81,5.81,0,0,0-.5,3.2,19.27,19.27,0,0,0,2.52,8.39,2.85,2.85,0,0,0,1.29,1.34c1.21.46,2.39-.69,3.15-1.73,3.83-5.2,7.24-10.69,10.64-16.18.74-1.19,3.24-4.63,2.59-6.19-.91-2.18-3.83.12-5.37.9A62.73,62.73,0,0,0,132.24,346Z"/><path class="cls-5" d="M155.85,336.29c1.81.68,12.71,24.16,10,26.21a99.17,99.17,0,0,1-11.52.93,2,2,0,0,1-.75-1.56,132.34,132.34,0,0,1-1.49-17.56C152,341.81,149.3,333.84,155.85,336.29Z"/><path class="cls-5" d="M145.44,344l5.88.91a.76.76,0,0,0,.61-.08.7.7,0,0,0,.2-.45c.56-2.95,1.3-5.94,1.63-8.91-1.9-.39-3.92-.36-5.43,1C147.63,337,144.59,343.82,145.44,344Z"/><path class="cls-6" d="M204.11,272.78a5.75,5.75,0,0,0-1.79,2.27"/><path class="cls-6" d="M211.48,273.1a6.93,6.93,0,0,1-1.58,2.22"/><path class="cls-6" d="M85.62,264.75A4,4,0,0,0,83.08,267"/><path class="cls-6" d="M92,265.94l-2.33,2"/><path class="cls-7" d="M135.46,261.76l-.66.65"/><path class="cls-7" d="M127.6,284c10.94,2.57,34-4.52,35.35-3.85,4.63,2.3,9.26,10.32,9.92,15.39a15,15,0,0,1-4.11,13.09"/><path class="cls-8" d="M131.4,294.08c-6.69-3.35-3.8-10.11-3.8-10.11s3.59,1.61,14.59-.12C143.24,283.69,133.55,287.51,131.4,294.08Z"/><path class="cls-9" d="M32.17,345.14a233.63,233.63,0,0,1-7.16-33c-.72-6.08-9.86.82-11,5.16-1.36,4.94,0,15.5,4.11,26.79-14.9,8.65-14.42,23-14.08,24.33.26,1,6.57,11.46,12,12.11,6.57.79,23.73-6.3,26-9,5.3-6.35,2.64-24.78-.14-26.9-5.18-4-18.5,4.85-19.25,7.92-.59,2.38,2.92,7.65,3.73,8.13s7.79-2.49,11.57-3.58"/><path class="cls-9" d="M.43,364.41C.11,369.17,9.57,376,11.66,375.57c2.67-.54,11.86-11.79,12.48-13.51.79-2.21-3.92-22.08-10.37-18.87C10.82,344.65,1,356.79.43,364.41Z"/><path class="cls-7" d="M7.51,362c1.25,2.72,5.26,9.31,8.31,9.31"/><path class="cls-7" d="M13,353.11c1.27,3.69,5.66,11.09,8.58,12.21"/><path class="cls-7" d="M193.41,166.79c5.1-.28,23.86,3.75,35.87,11.76"/><path class="cls-7" d="M80.94,172.58s10.52-6.37,30-6.37"/><path class="cls-10" d="M70.67,204.39c6.23-6.24,27.65-16,47.67-10.82"/><path class="cls-11" d="M91.54,250.36c.92,3.12,3.33,7.53,6.3,8.42,19.53,5.79,23.8-50.75,8.77-53C94.41,204,86.51,233.24,91.54,250.36Z"/><path class="cls-10" d="M186.62,194.61c20.95-2.62,41.06,8.89,55,21.72"/><path class="cls-12" d="M187.54,234.1c-1.68,14.17,1.66,28.65,11.28,28.88,7.88.2,13.86-11.69,16.19-25.65,1.77-10.66,0-28-9.69-30.26C196,204.9,189.27,219.43,187.54,234.1Z"/><path class="cls-13" d="M178.13,40.06C182,15.35,192.1.5,192.1.5S160.82,7,178.13,40.06Z"/></g></g></svg>