<svg xmlns="http://www.w3.org/2000/svg" viewBox="0 0 712.95 94.52"><defs><style>.cls-1{fill:#49a9a4;}.cls-2{fill:#c45c66;}.cls-3{fill:#30353a;}</style></defs><title>title</title><g id="レイヤー_2" data-name="レイヤー 2"><g id="book-page"><rect class="cls-1" y="63.04" width="712.95" height="31.47"/><path class="cls-2" d="M86.38,14.4V3.33h44.91V14.4h-16c-.18.9-.54,2.16-1,3.87H129.4V64.71H117.79a87,87,0,0,1,15.12,8.73l-5.49,9.81a122.11,122.11,0,0,0-18.18-10l4.68-8.55h-12.6l5,7.74C101.77,76.5,95.74,80,88,82.89l-4.32-8.37c-.63,2.88-1.44,4.5-3.15,5.31s-2.7.81-5.58.81c-2.25,0-6.12-.27-11.61-.72L63,69.75a40.63,40.63,0,0,1-9.54,12.6L46.78,71.46a31.7,31.7,0,0,0,7.38-10.8c1.62-4,2.7-9.63,3.24-16.92H51.55V38.43L46.78,35c4.32-9.18,7.74-20.07,10.35-32.58L68.47,5.49a152.62,152.62,0,0,1-7.11,26.37h15a152.62,152.62,0,0,1-7-26.37L80.62,2.43a155.44,155.44,0,0,0,8.64,28.8v-13h11.43a35.31,35.31,0,0,1,.9-3.87ZM73.15,65.16c.27-2.34.45-9.45.45-21.42H68.83c-.81,10.08-2.43,18.18-4.95,24,3.6.45,5.94.72,6.75.72C72.07,68.49,72.88,67.32,73.15,65.16Zm16.11-.45V36.27l-3.87,2.79c-.09,17.37-.54,28.35-1.26,32.85a75.16,75.16,0,0,0,13.77-7.2Zm12.06-36.09v3.24h15.3V28.62ZM116.62,40h-15.3v3.15h15.3Zm0,11.25h-15.3v3.24h15.3Z"/><path class="cls-3" d="M176.56,83.16V46.08H166v32.4H152.71v-26a66.64,66.64,0,0,1-9.81,9l-5.76-13A73.12,73.12,0,0,0,159.55,21H140.83V9.09h22.95a87.87,87.87,0,0,0,2.07-9l14.4.81a75,75,0,0,1-1.71,8.19H219V21H174.67a80.81,80.81,0,0,1-6.84,13.68h8.73V25h14v9.63h26.55v28.8c0,2.43,0,4.41-.09,5.76-.09,2.52-1,5.22-2,6.21a6.34,6.34,0,0,1-2.61,1.26c-2.34.72-4.41.81-9.36.81-1.8,0-4.77-.18-8.82-.45l-.36-11.43c3.06.27,5.4.27,7.29.27,2.34,0,2.34,0,2.34-1.89V46.08h-13V83.16Z"/><path class="cls-3" d="M227.14,38.79a232.57,232.57,0,0,0,3.6-33.66l9.9.81c-.09,2.25-.18,5.22-.45,9H242V1.62h13.32V14.94h6.48v8.64a88.57,88.57,0,0,0,9-23.58l12.87,1.53c-.63,2.52-1.53,5.49-2.61,8.73H310.3c-.09,12-.27,21.78-.45,29.25a295,295,0,0,1-2.34,32.4,17.08,17.08,0,0,1-2.16,6.57c-2.07,3.24-3.6,3.33-7.2,3.33-4.32,0-9.63-.18-16.29-.54l-.54-9.54a73.23,73.23,0,0,1-12.42,11L260,73.44a83.67,83.67,0,0,0,21.42-21.78,101.67,101.67,0,0,0,13.95-29.61h-3A107.24,107.24,0,0,1,280.78,46a74.1,74.1,0,0,1-15.3,17.46l-8.55-8.91-1.62.45V82.26H242v-24c-5.4,1.17-9.63,2-12.78,2.52L228,49.14c4.59-.81,9.27-1.62,14-2.61V26.37h-2.7c-.45,4.68-1.26,9.72-2.25,15Zm29.07-7a47.05,47.05,0,0,0,3.78-5.4h-4.68V43.29c1.53-.45,3.78-1.08,6.84-2.07l.54,7.92c7.2-7.29,12.78-16.38,16.92-27.09h-3.33a80.93,80.93,0,0,1-11.61,19.08Zm27.09,37.8c3,.27,5.76.36,8.46.36a1.82,1.82,0,0,0,1.62-1.08c1-1.53,1.71-6.93,2.34-18.09A106.35,106.35,0,0,1,283.3,69.57Z"/><path class="cls-3" d="M349.72,65.7c-.18.18-18.27,10.08-18.27,10.08-4.05-7-15.3-28.08-4.68-63.54l13.77,3.87c-7.29,24.57-3.33,38.34-1.35,43.92l5.58-3.15Zm38.52-29.25L380,30.33l4.68-6.21c-5.13-3.42-11.43-4-17.37-2.25a86.69,86.69,0,0,0-9.09,3.24L353,11.88c6-2.16,12.06-4.5,18.36-5,8.82-.63,17.91,2.16,30.24,12.42ZM364.48,58.32c3.51,3.87,7.56,6.3,10.08,6.48,5.76.36,10-3.06,13-6.39l10.8,9.36c-6.66,7.29-14.49,11.07-22.86,11.07-8.1,0-15.66-4.68-21.51-10.8Z"/><path class="cls-2" d="M443.14,65.07c9-1.62,18-4.68,24.12-10.89,5.76-5.94,6.39-15.66,1.71-22.59s-14.22-7.74-22.05-7.47c-10.89.36-21.42,3-32.49,5.94L409.48,11.7l9.63-2.79,1.26,4.77c9-2.07,19-4,29.7-4,14.22,0,25.29,4.86,31.41,13.68,7.74,11.52,7.47,27.09-.72,37.71C470.68,73.89,453.4,78.21,446,79.56Z"/><path class="cls-3" d="M543.76,59l-7.92,20.52L529,77c-24.39-9.09-29.34-29.34-29.34-57v-7.2h14.58V20c0,28.71,6.12,37.62,17.1,42.48l2.79-7Zm36.72-2.88H565.81V49c0-10.26-3-17.1-8.55-21.15l-2.61,5.94-9.36-3.87L554,10.26l7.29,3.33c8.82,4.14,19.17,14,19.17,35.37Z"/><path class="cls-3" d="M646.18,82c-14.49-7-23.22-16.2-25.92-27.72-2.16-9.45-.36-20,5.31-31.14l-31.41,2.43-1.62-19,10-.81.54,5.67,62.28-4.77,1,13.5-23.13,1.71c-5.76,8.82-11,19.62-8.82,29.07,1.71,7,8.28,13.23,19.08,18.18Z"/></g></g></svg>