<svg xmlns="http://www.w3.org/2000/svg" viewBox="0 0 354.83 36.33"><defs><style>.cls-1{fill:#30353a;}</style></defs><title>sub</title><g id="レイヤー_2" data-name="レイヤー 2"><g id="load-view"><path class="cls-1" d="M14.89,22.36,21.07,4.74c.23-.57.67-.73,1.32-.47L28.1,7a.78.78,0,0,1,.39,1.13L13.68,35.88a.72.72,0,0,1-.6.37.75.75,0,0,1-.57-.41L.09,7.05A.78.78,0,0,1,.56,5.91L12.63,1.5c.57-.16.9.07,1,.66Z"/><path class="cls-1" d="M34.64,10.56,33,2.28c-.13-.62.13-1,.78-1l16-.47c.65,0,1,.35,1,1.05l-.31,5.08a.82.82,0,0,1-.82.86L35.57,11.23C35.08,11.36,34.77,11.14,34.64,10.56Zm-.32,16.68L49.05,28c.52,0,.74.32.66.86L49.4,33a.84.84,0,0,1-.7.86L36,35.52a.78.78,0,0,1-.9-.58l-1.79-6.72C33.14,27.57,33.46,27.24,34.32,27.24ZM37.45,8.73c-.13-.73.18-1.06.94-1l8.94,1.17a.91.91,0,0,1,.78.94L44.83,31l-5.12.24Z"/><path class="cls-1" d="M59.18,35.09,57.19,3c0-.6.27-1,1-1.21L67.46.56c.66-.08,1,.25,1,1L65.51,34.16a.65.65,0,0,1-.58.82l-5,.66C59.44,35.72,59.21,35.54,59.18,35.09ZM63.79,9.47,70.51.64A.77.77,0,0,1,71.72.56L82.19,8.14a.94.94,0,0,1,.35.86L82,14.39a.59.59,0,0,1-.27.47L63.48,25.76l-.86-3.36L75.36,11.15Zm5.55,9.84,14,11.1a.75.75,0,0,1,0,1.21l-5.62,4.49c-.39.34-.74.29-1-.16L66.25,21.81Z"/><path class="cls-1" d="M90.14,13.73,88.53,3.57c-.1-.7.26-1,1.1-.86l24,3a.82.82,0,0,1,.71.94l-.47,4.14a.86.86,0,0,1-.82.78l-21.8,3.05C90.59,14.66,90.21,14.38,90.14,13.73Zm7.54,21.09,1.44-21.64c0-.47.37-.69.94-.66l4.88.46a.86.86,0,0,1,.7,1l0,21.56c0,.57-.24.8-.74.67L98.5,35.8A.84.84,0,0,1,97.68,34.82Z"/><path class="cls-1" d="M142.61,32.48l-10,3.24a.75.75,0,0,1-.78,0L123.51,32a1.05,1.05,0,0,1-.58-.82L119.88,5.6a.87.87,0,0,1,.78-1l9-2.62c.73-.21,1.08,0,1.06.74L129.41,27.2l4.92,3.4,8.28-3.2Zm-2.89,1.6-.94-29.65a1,1,0,0,1,.79-1l7.81-1.88c.62-.16.91.14.86.9l-3.52,32.42c-.05.52-.32.73-.82.63l-3.63-.59C139.93,34.83,139.75,34.57,139.72,34.08Z"/><path class="cls-1" d="M153.49,31.93,165.36,1.11a.73.73,0,0,1,1-.55l5.31,1.57a.7.7,0,0,1,.55,1l-7.77,32.42a.93.93,0,0,1-1.33.63l-9-2.89C153.47,33.13,153.28,32.68,153.49,31.93Zm10.35-11.09L173.21,22a1.06,1.06,0,0,1,1,1.29l0,3.43a1.12,1.12,0,0,1-1,1.14l-9.42.27Zm3.91-15,4.53-1.57a.9.9,0,0,1,1.17.71l12,26.44c.24.55.17.94-.19,1.17L178.57,36a.89.89,0,0,1-1.41-.55Z"/><path class="cls-1" d="M193,35.29,190.61,4a1,1,0,0,1,.86-1.25l9.85-1.6c.62-.1.88.19.78.9l-3.6,26.6,16.84-3q1.13-.15.9,1.17L215,34.63a1,1,0,0,1-1,.82l-20,.78C193.36,36.28,193,36,193,35.29Z"/><path class="cls-1" d="M233.42,33.49,235.18.64a.62.62,0,0,1,.39-.6c.23-.1.48,0,.74.25l18.47,24.37a.59.59,0,0,1-.07.94l-2.58,2.54a.68.68,0,0,1-1.06-.08l-7.81-7.89L244.59,35c.08.73-.18,1.05-.78,1l-9.53-1.48A.79.79,0,0,1,233.42,33.49Zm19.41.9L250.92,1.3c-.11-.72.26-1,1.09-.85l9.45,2.69a.87.87,0,0,1,.55,1l-2.85,30.93c-.08.58-.35.82-.82.75l-4.73-.59A.77.77,0,0,1,252.83,34.39Z"/><path class="cls-1" d="M270.58,32.09c-.6.13-.92-.19-1-.94l-2.9-26.37c-.07-.78.29-1.18,1.1-1.21L291.64,2c1,0,1.32.42,1,1.25l-1.33,8.24c-.05.52-.37.78-1,.78H275.86l-.47,19.14c0,.39-.28.63-.75.71ZM268.39,31a.91.91,0,0,1,.79-1.17l21.05-2.54c.6,0,.89.27.86.9l-.59,7c-.05.45-.36.63-.93.55L270,35.13a.74.74,0,0,1-.82-.66Zm6.29-12a.81.81,0,0,1,.55-1.17l12.62-2.31c.65-.1.95.23.9,1L288,23.18c0,.49-.34.79-.93.9l-10.08,0a.82.82,0,0,1-1-.63Z"/><path class="cls-1" d="M301.38,32.09c-.6.13-.93-.19-1-.94L297.51,4.78c-.08-.78.29-1.18,1.1-1.21L322.43,2c1,0,1.33.42,1,1.25l-1.33,8.24c-.05.52-.38.78-1,.78H306.65l-.47,19.14c0,.39-.27.63-.74.71ZM299.19,31a.91.91,0,0,1,.78-1.17L321,27.28c.6,0,.88.27.86.9l-.59,7c-.05.45-.36.63-.94.55l-19.53-.55a.74.74,0,0,1-.82-.66Zm6.29-12a.8.8,0,0,1,.55-1.17l12.61-2.31c.65-.1.95.23.9,1l-.7,6.72c0,.49-.34.79-.94.9l-10.08,0a.81.81,0,0,1-1-.63Z"/><path class="cls-1" d="M330.61,13.73,329,3.57c-.1-.7.26-1,1.1-.86l24,3a.81.81,0,0,1,.7.94l-.47,4.14a.85.85,0,0,1-.82.78l-21.79,3.05A.9.9,0,0,1,330.61,13.73Zm7.54,21.09,1.45-21.64q.07-.7.93-.66l4.89.46a.87.87,0,0,1,.7,1l0,21.56c0,.57-.25.8-.74.67L339,35.8A.85.85,0,0,1,338.15,34.82Z"/></g></g></svg>