<svg xmlns="http://www.w3.org/2000/svg" viewBox="0 0 185.6 182.8"><defs><style>.cls-1{fill:#c3ce5f;}</style></defs><title>green-2</title><g id="レイヤー_2" data-name="レイヤー 2"><g id="top-page"><path class="cls-1" d="M0,182.2a271.62,271.62,0,0,0,21.4-65.5A372.82,372.82,0,0,0,27.6,48a5.32,5.32,0,0,0-1.2-3.2,2.67,2.67,0,0,1,.5-2.3,2.56,2.56,0,0,0,.7-1.9V1.8A1.59,1.59,0,0,1,29.4,0q1.2,0,5.4.3t8.8.7c3.07.27,5.86.53,8.4.8a15.43,15.43,0,0,1,4.4.8c1.06.8,1.5,1.47,1.3,2a4.43,4.43,0,0,1-1.4,1.7L54.1,8.1A2.67,2.67,0,0,0,53,10.2q0,6,.2,11.9T53.4,34q0,20.6-1.8,41.1a211.25,211.25,0,0,1-7.3,39.7,154.66,154.66,0,0,1-15.7,36.4,120.86,120.86,0,0,1-27,31.2l-1.2.4ZM20.2,43.4c-.13.27-1,.6-2.5,1a35.14,35.14,0,0,1-5.1.9,33.82,33.82,0,0,1-5.1.2c-1.54-.07-2.3-.43-2.3-1.1s.7-1.17,2.1-1.5a25,25,0,0,1,4.7-.6,32,32,0,0,1,5.1.2A6,6,0,0,1,20.2,43.4Zm38.2.4c.67-1.07,1.93-1.63,3.8-1.7A8.89,8.89,0,0,0,66.6,41a11.65,11.65,0,0,0,3-2.6l3.7-4.1q1.9-2.1,3.7-3.8c1.2-1.13,2.13-1.7,2.8-1.7q.4,0,3.3,2.4c1.93,1.6,4.07,3.4,6.4,5.4s4.53,3.93,6.6,5.8,3.36,3.07,3.9,3.6a2.2,2.2,0,0,1,.8,1.4c0,.27-.27.6-.8,1s-1.17.83-1.9,1.3-1.43.9-2.1,1.3-1.13.67-1.4.8V52a52.93,52.93,0,0,0-.5,5.6c-.07,1.87-.1,3.73-.1,5.6q-.41,5.6-.6,11.1c-.13,3.67-.27,7.37-.4,11.1q-.41,8.4-.7,16.7t-.7,16.7q-.6,9.2-1.7,20.1a79.78,79.78,0,0,1-4.7,20.4,40.71,40.71,0,0,1-10.6,15.9q-7,6.41-19.4,6.4c-1.74,0-2.63-.73-2.7-2.2a27.75,27.75,0,0,0-.5-4.2,43.62,43.62,0,0,0-2.5-8.8,24.38,24.38,0,0,0-4.9-7.6,6.31,6.31,0,0,0-1.1-1.2,1.79,1.79,0,0,1-.7-1.4c0-.27.16-.47.5-.6s.63-.27.9-.4a30.88,30.88,0,0,1,6.6-1.1,12,12,0,0,0,6.2-1.9q4-2.8,6.2-9.2a72.18,72.18,0,0,0,3.2-13.8,121.51,121.51,0,0,0,1.1-14.6q.1-7.2.1-11.8,0-13.2.8-26.3t.8-26.3q0-4.2-1.1-5.1a3.15,3.15,0,0,0-2.7-.6c-1.07.2-2.23.43-3.5.7A3.54,3.54,0,0,1,58.4,43.8ZM107.6,178V23.8c0-1.33.23-2.1.7-2.3s1.23,0,2.3.5a163.55,163.55,0,0,0,15.9,6.5A52.05,52.05,0,0,0,143.4,31c1.06,0,2.06,0,3-.1s1.93-.1,3-.1l1.4-.6c.4-.4,1.23-1.27,2.5-2.6s2.6-2.7,4-4.1,2.73-2.67,4-3.8,2.1-1.7,2.5-1.7,1.6.8,3.6,2.4,4.2,3.4,6.6,5.4,4.7,3.93,6.9,5.8,3.63,3.07,4.3,3.6l.4,1a2.59,2.59,0,0,1-1,1.6,21.62,21.62,0,0,1-1.8,1.2,20.07,20.07,0,0,0-1.8,1.2,1.72,1.72,0,0,0-.8,1.4V166.2a1.63,1.63,0,0,0-.2.6.59.59,0,0,0-.2.4v.2a8.44,8.44,0,0,1-3.9,4.7,25.05,25.05,0,0,1-6.4,2.6,42.61,42.61,0,0,1-7.2,1.2q-3.7.3-6.3.3c-.67,0-1.1-.13-1.3-.4a6.8,6.8,0,0,1-.7-1.4,26.23,26.23,0,0,1-.6-4.4c-.13-1.87-.23-3.83-.3-5.9s-.1-4.07-.1-6V36.8a1.77,1.77,0,0,0-2-2H135a1.77,1.77,0,0,0-2,2v118q0,4.6-.3,9.3a87.39,87.39,0,0,1-1.1,9.3,5.33,5.33,0,0,1-3.1,4,21.3,21.3,0,0,1-6.2,2,50.45,50.45,0,0,1-7,.7c-2.34.07-4.17.1-5.5.1l-1.4-.6-.2-.2Zm39.2-23.2c-.4,0-1.1,0-2.1.1s-2,.1-3.1.1a12.92,12.92,0,0,1-2.9-.3c-.87-.2-1.3-.57-1.3-1.1a4.49,4.49,0,0,1,1.9-.2h7.3a5.94,5.94,0,0,1,2,.2l-.4.6Z"/></g></g></svg>