<svg xmlns="http://www.w3.org/2000/svg" viewBox="0 0 183.6 185.2"><defs><style>.cls-1{fill:#c3ce5f;}</style></defs><title>green-1</title><g id="レイヤー_2" data-name="レイヤー 2"><g id="top-page"><path class="cls-1" d="M.2,66l.2-.2,1.4-.6H47l.6.6-.6.8q-10.8.2-21.6.7t-21.6.5h-2A2.91,2.91,0,0,1,0,67.2ZM90.4,9.8l-.6,1c-1.33.53-3.57,1.63-6.7,3.3s-6.3,3.53-9.5,5.6A95.56,95.56,0,0,0,65,25.9Q61.21,29,61.2,31l.2.4,1,.4q5.4,0,13.9-.6t17.3-1q8.81-.4,16.7-.2a48.79,48.79,0,0,1,12.5,1.6l.4.6a11.42,11.42,0,0,1-6.1,3.9,41.88,41.88,0,0,1-8.7,1.4q-4.8.3-9.9.3a87.91,87.91,0,0,0-9.6.5,30.59,30.59,0,0,0-8,1.9A8.55,8.55,0,0,0,76,44.8c.13,1.07,1.2,2,3.2,2.7a65.89,65.89,0,0,0,6.6,2q3.6.9,6.5,1.7c1.93.53,2.9,1.13,2.9,1.8s-.43,1-1.3,1.3a17.79,17.79,0,0,0-2.8,1.4,10.81,10.81,0,0,0-2.8,2.5A6.77,6.77,0,0,0,87,62.6a1.77,1.77,0,0,0,2,2h16.6a2.7,2.7,0,0,1,.9.4,5.7,5.7,0,0,1,1.2.9,2.13,2.13,0,0,1,.6.9c.07.27-.3.4-1.1.4h-23c-.4,0-1.43.7-3.1,2.1s-3.5,3-5.5,4.7-3.87,3.4-5.6,5-2.93,2.67-3.6,3.2q-4.8,4-12,9.5T39.2,102.2a138.06,138.06,0,0,1-15.9,8.6q-7.9,3.6-14.1,3.6c-.67,0-1-.4-1-1.2s1-2.47,2.9-4.6,4.4-4.57,7.4-7.3,6.33-5.63,10-8.7,7.17-6.07,10.5-9,6.3-5.7,8.9-8.3a30.89,30.89,0,0,0,5.3-6.5q.79-1.2,2.4-4.1t3.3-6c1.13-2.07,2.13-4,3-5.9a11.35,11.35,0,0,0,1.3-4c0-1.33-.6-2-1.8-2A32.24,32.24,0,0,0,52,48.2q-4.61,1.39-9.1,3.2t-9.1,3.2A32.24,32.24,0,0,1,24.4,56q-.79,0-2.9-3.4c-1.4-2.27-2.8-4.83-4.2-7.7s-2.67-5.63-3.8-8.3a18.62,18.62,0,0,1-1.7-5.2q0-.41.6-.6a3.38,3.38,0,0,1,1-.2H48c.93,0,2-1.33,3.1-4a97.26,97.26,0,0,0,3.3-9.2q1.6-5.2,2.9-10A41.93,41.93,0,0,1,59.4,1a1.41,1.41,0,0,1,1.4-1,25.66,25.66,0,0,1,5,1.2q4,1.2,8.8,2.8t9.2,3q4.4,1.39,6,2Zm25.4,82.6a2.25,2.25,0,0,1-1.2.8c-2.67.67-5.23,1.4-7.7,2.2a47.83,47.83,0,0,0-7.5,3.2q-6.8,3.6-15,8.4t-16.9,9.2a139.38,139.38,0,0,1-17.4,7.4,50.65,50.65,0,0,1-16.5,3,10.82,10.82,0,0,1-2.4-.2l.6-.6a59.57,59.57,0,0,1,7.4-4.8q4-2.2,7.8-4.4,7.8-5,15.2-10.5a140.75,140.75,0,0,0,14-11.9q4-4,7.6-8.2t7.6-8.2a1.92,1.92,0,0,1,1.4-.6q1,0,4.5,2c2.33,1.33,4.8,2.87,7.4,4.6s5,3.43,7.2,5.1A18.44,18.44,0,0,1,115.8,92.4ZM35,184.8c.13-.27.6-.53,1.4-.8q20-7,39.9-16A177.52,177.52,0,0,0,113,145.8a106,106,0,0,0,9.2-8.2l8.8-8.8q1.6-1.61,3-3.1a17.93,17.93,0,0,1,3.2-2.7l17,10.2c1.2.67,2.37,1.37,3.5,2.1a29.23,29.23,0,0,1,3.3,2.5c.67.27,1,.67,1,1.2,0,.27-.3.5-.9.7s-1.27.4-2,.6-1.43.37-2.1.5a6.2,6.2,0,0,0-1.4.4,15.17,15.17,0,0,0-4.4,2.6l-4.2,3.4a95.65,95.65,0,0,1-8.7,5.9q-4.5,2.7-9.1,5.3a230,230,0,0,1-42.6,19.4,144.06,144.06,0,0,1-46.2,7.4H37.7A11.35,11.35,0,0,1,35,184.8ZM40.4,153a13.74,13.74,0,0,1,2.5-1.5q2.1-1.09,4.6-2.3l4.8-2.3c1.53-.73,2.63-1.3,3.3-1.7a234.13,234.13,0,0,0,24.1-14.1,178.68,178.68,0,0,0,21.9-17.3c.53-.53,1.5-1.53,2.9-3s2.87-3,4.4-4.5,3-2.9,4.3-4.1,2.2-1.8,2.6-1.8,1.67.7,3.8,2.1,4.5,3,7.1,4.8,5.1,3.5,7.5,5.1,3.93,2.67,4.6,3.2a1.18,1.18,0,0,1,.6,1,1.94,1.94,0,0,1-.7,1.3,12.7,12.7,0,0,1-1.7,1.4c-.67.47-1.33.9-2,1.3s-1.13.67-1.4.8q-3.4,1.8-10.8,5.1t-16.6,6.9Q97,137,86.7,140.7t-19.5,6.6q-9.2,2.89-16.4,4.5T40.4,153Zm70-140.6.6-.6a81.35,81.35,0,0,1,14.4,1.5A65.14,65.14,0,0,1,141,18.2a37.88,37.88,0,0,1,12.4,8.9,19.36,19.36,0,0,1,5,13.5,10.2,10.2,0,0,1-1.3,5.6,8.26,8.26,0,0,1-3.4,3,13.24,13.24,0,0,1-4.8,1.2c-1.8.13-3.63.2-5.5.2H142a4.49,4.49,0,0,1-1.4-.4q-3.4-1.61-7-6.4t-7.4-10.5q-3.8-5.7-7.7-11.2a44.66,44.66,0,0,0-7.5-8.5Zm4.2,54.2a1.14,1.14,0,0,1-.8-.4,2.55,2.55,0,0,1,2.4-1.6H148c.8,0,1.77-.8,2.9-2.4s2.37-3.4,3.7-5.4l3.8-5.7a8.13,8.13,0,0,1,3.4-3.3l1.2.4q4.8,4.39,9.8,8.5T183,64.8l.6,1-.6.8Zm51,47.6q-5.21-2.6-12.1-6.8A147.55,147.55,0,0,1,140,98.1a119.11,119.11,0,0,1-12.1-10.7,31.91,31.91,0,0,1-7.5-11c-.4-.93,0-1.47,1.1-1.6a12.51,12.51,0,0,1,4,.3c1.53.33,3.07.7,4.6,1.1s2.5.67,2.9.8q9,2.2,18,4.1t18,4.5l3.1.8a36,36,0,0,1,4.5,1.5A10.22,10.22,0,0,1,180,90c.8.8.8,1.73,0,2.8-1.47,1.73-2.83,3.37-4.1,4.9a31.62,31.62,0,0,0-3.5,5.3q-1,2.2-2.4,5.8a15.16,15.16,0,0,1-3,5.2,1,1,0,0,1-.7.2Z"/></g></g></svg>