<svg xmlns="http://www.w3.org/2000/svg" viewBox="0 0 189 182.85"><defs><style>.cls-1{fill:#e1c86b;}</style></defs><title>yellow-2</title><g id="レイヤー_2" data-name="レイヤー 2"><g id="top-page"><path class="cls-1" d="M124.2,3.4a4.85,4.85,0,0,1-1.6,2.4,3.22,3.22,0,0,0-1.2,2.6V125.8a1.9,1.9,0,0,0,.5,1.2c.33.4.63.73.9,1,.93,0,2,0,3.3.1s2.57.1,3.9.1a35.33,35.33,0,0,0,3.8-.2,8.85,8.85,0,0,0,3-.8l.6-1.2V36.8a1.74,1.74,0,0,0-1.3-1.7,10,10,0,0,0-2.9-.6,17.13,17.13,0,0,0-3.2.1,22.17,22.17,0,0,1-2.4.2l-1.4-.6-.4-.4c.27-.27.47-.4.6-.4a26.23,26.23,0,0,0,6.8-2.1,20.71,20.71,0,0,0,4.6-3.1,18.64,18.64,0,0,0,3.5-4.3c1-1.67,2.23-3.63,3.7-5.9l1.2-.6a.81.81,0,0,1,.9.2,4.67,4.67,0,0,0,.9.6c.8.53,2.4,1.57,4.8,3.1s4.9,3.17,7.5,4.9,4.93,3.43,7,5.1,3.1,2.83,3.1,3.5a1.68,1.68,0,0,1-1,1.4,16.71,16.71,0,0,1-2.2,1.1,11.34,11.34,0,0,0-2.2,1.2,2,2,0,0,0-1,1.7v73.4c0,1.2.47,1.8,1.4,1.8a2.32,2.32,0,0,0,1.6-.8,18.78,18.78,0,0,0,1.5-1.7c.47-.6.93-1.17,1.4-1.7a1.9,1.9,0,0,1,1.3-.8c.27,0,1.2.77,2.8,2.3s3.4,3.3,5.4,5.3,3.87,3.9,5.6,5.7a46,46,0,0,0,3.6,3.5l.4,1c0,1.2-.67,1.8-2,1.8H59.6a4.3,4.3,0,0,0-1.7,1,3.92,3.92,0,0,1-1.9,1,3.6,3.6,0,0,1-2.5-1,3.6,3.6,0,0,0-2.5-1H1a.88.88,0,0,1-1-1c0-1.07,1.1-1.53,3.3-1.4s4.67.3,7.4.5a71.31,71.31,0,0,0,7.4.2c2.2-.07,3.3-.83,3.3-2.3V23.2c0-1.2.67-1.8,2-1.8a19,19,0,0,1,7.8,1.8q4,1.8,8.1,3.9t8.3,3.8A22.31,22.31,0,0,0,56,32.6a9.56,9.56,0,0,0,3.7-.7c1.13-.47,1.7-1.5,1.7-3.1V2a1.77,1.77,0,0,1,2-2q5,0,11.3.4a41.33,41.33,0,0,1,10.9,2c1.47.53,1.87,1.27,1.2,2.2a9.18,9.18,0,0,0-1.4,2.8,33.86,33.86,0,0,0-1.5,11q.1,6,.1,11.2a6.74,6.74,0,0,0,.2,1.6,1.07,1.07,0,0,0,1.2.8c.53,0,1.47.07,2.8.2s2.67.2,4,.2a12.19,12.19,0,0,0,3.6-.5A1.93,1.93,0,0,0,97.4,30V2a1.77,1.77,0,0,1,2-2,102.74,102.74,0,0,1,12,.7q6,.7,11.8,1.9ZM84.8,152a55.45,55.45,0,0,0-19.3,5.8q-8.89,4.6-17.6,9.5a188.07,188.07,0,0,1-18,8.9,51.28,51.28,0,0,1-20.5,4c-2.13,0-2.57-.67-1.3-2a31.62,31.62,0,0,1,5.6-4.4q3.71-2.4,7.5-4.5a36.67,36.67,0,0,0,4.2-2.5,91.89,91.89,0,0,0,8.3-6.8q3.9-3.6,7.5-7.6a100,100,0,0,0,7.1-8.8,52.52,52.52,0,0,1,7.5-8.4l.4-.2,5.8,2.9q4.6,2.29,9.7,5.1t9.2,5.3a24.5,24.5,0,0,1,4.5,3.1Zm-38-75.2a1.77,1.77,0,0,0,2,2H59.4a1.77,1.77,0,0,0,2-2v-40a1.77,1.77,0,0,0-2-2H48.8a1.77,1.77,0,0,0-2,2Zm2,4.6a1.77,1.77,0,0,0-2,2v41.4a1.77,1.77,0,0,0,2,2H59.4a1.77,1.77,0,0,0,2-2V83.4a1.77,1.77,0,0,0-2-2ZM87.6,34.8A3.67,3.67,0,0,0,85.3,36,3.24,3.24,0,0,0,84,38.2V76.8a1.77,1.77,0,0,0,2,2h9.4a1.77,1.77,0,0,0,2-2v-40a1.77,1.77,0,0,0-2-2Zm0,46.6a3.67,3.67,0,0,0-2.3,1.2A3.24,3.24,0,0,0,84,84.8v40a1.77,1.77,0,0,0,2,2h9.4a1.77,1.77,0,0,0,2-2V83.4a1.77,1.77,0,0,0-2-2Zm23.6,62.2a1.36,1.36,0,0,1,1.5-1.1c.73.07,1.43.1,2.1.1,2.67,0,6.13.2,10.4.6s8.83,1.07,13.7,2,9.73,2.1,14.6,3.5a68.45,68.45,0,0,1,13.3,5.3,34.16,34.16,0,0,1,9.7,7.4,14.09,14.09,0,0,1,3.7,9.6,10,10,0,0,1-2.7,7.2,14.41,14.41,0,0,1-6.4,3.9,19.53,19.53,0,0,1-7.9.6A14.85,14.85,0,0,1,156,180a30.31,30.31,0,0,1-5.4-5.1,57.31,57.31,0,0,0-5.2-5.5A150.3,150.3,0,0,0,129,155.6Q120.2,149.2,111.2,143.6Zm20.4-63c0,.27-.27.5-.8.7a5.41,5.41,0,0,1-1.9.3,14.93,14.93,0,0,1-1.9-.1c-.53-.07-.8-.3-.8-.7,0-.67.8-.93,2.4-.8A7.79,7.79,0,0,1,131.6,80.6Z"/></g></g></svg>