<svg xmlns="http://www.w3.org/2000/svg" viewBox="0 0 185 186.8"><defs><style>.cls-1{fill:#e1c86b;}</style></defs><title>yellow-1</title><g id="レイヤー_2" data-name="レイヤー 2"><g id="top-page"><path class="cls-1" d="M0,108.72l.8-.52H75.2a4,4,0,0,0,2.2-1.2,3.23,3.23,0,0,0,1.4-2.21V69.91a4.39,4.39,0,0,0-.7-2.2,4.73,4.73,0,0,1-.7-2.41,2.3,2.3,0,0,1,.7-1.7,2.1,2.1,0,0,0,.7-1.51V24.61a3,3,0,0,0-.7-1.9,2.28,2.28,0,0,1-.5-1.91,6.8,6.8,0,0,1,.6-1.8,6.8,6.8,0,0,0,.6-1.8,22.44,22.44,0,0,0-.5-7.6A32.88,32.88,0,0,1,77.4,2c0-1.33.53-2,1.6-2h2.8c.93,0,2.87,0,5.8.1s5.93.27,9,.6a64.44,64.44,0,0,1,8.3,1.4c2.47.6,3.7,1.37,3.7,2.3a1.52,1.52,0,0,1-.7,1.3,17.2,17.2,0,0,1-1.6,1,9.59,9.59,0,0,0-1.6,1.1,2,2,0,0,0-.7,1.6V106a2.2,2.2,0,0,0,1.4,2.21q11.2,0,22.3-.6T150,107a5.27,5.27,0,0,0,2.3-1.31l1.9-1.92a74.4,74.4,0,0,0,5-5.57,10.73,10.73,0,0,0,2.2-7,6.91,6.91,0,0,0-.2-1.62,1.07,1.07,0,0,0-1.2-.81H109.4a1.4,1.4,0,0,1,0-2.8h28c.4,0,1-.43,1.9-1.3a37.87,37.87,0,0,0,2.6-2.9,20.37,20.37,0,0,0,2.2-3.3,6.49,6.49,0,0,0,.9-2.3c0-.53-.57-.9-1.7-1.1a31.71,31.71,0,0,0-4-.4c-1.53-.07-3-.1-4.4-.1h-2.7l-.8-.4a15.28,15.28,0,0,1-1.4-4.1c-.4-1.8-1.27-2.7-2.6-2.7-.67,0-2.07.07-4.2.2s-4.33.2-6.6.2a52.87,52.87,0,0,1-6-.3c-1.73-.2-2.6-.7-2.6-1.5q0-1.6,3.6-1.5t7.8.4q4.2.3,7.8.2c2.4-.07,3.6-.83,3.6-2.3V24c0-1.33-1.1-2.07-3.3-2.2a56.45,56.45,0,0,0-7.4.1c-2.73.2-5.37.37-7.9.5s-4.07-.2-4.6-1a2.54,2.54,0,0,1,.5-.7l.7-.7,1.4-.6a102.22,102.22,0,0,1,10.8.4,14.34,14.34,0,0,0,5.5-.2,10.35,10.35,0,0,0,4.4-3q2.29-2.4,7.5-8.2a1.87,1.87,0,0,1,.5-.2,1.87,1.87,0,0,0,.5-.2c.4-.13,1.67.53,3.8,2s4.4,3.13,6.8,5a81.12,81.12,0,0,1,6.4,5.5q2.81,2.7,2.8,3.5a2.56,2.56,0,0,1-1,1.9c-.67.6-1.2,1.1-1.6,1.5l-.6,1.4c0,.67,0,1.57-.1,2.7s-.1,2.27-.1,3.4a14.82,14.82,0,0,0,.3,3.1,2.9,2.9,0,0,0,1.3,2,5.22,5.22,0,0,0,3.9-1.8,24.62,24.62,0,0,0,3.1-4.1q1.4-2.3,2.4-4.1c.67-1.2,1.33-1.8,2-1.8.4,0,1.47.7,3.2,2.1s3.57,3,5.5,4.7,3.67,3.37,5.2,4.9,2.3,2.43,2.3,2.7a1.35,1.35,0,0,1-.4,1c-.27.27-1.63.43-4.1.5s-5.23.1-8.3.1-6,0-8.7-.1-4.5-.1-5.3-.1l-1.4.6-2.2,2.2-.6,1.4V72a5.35,5.35,0,0,0,2.4,4.4,50,50,0,0,0,5.4,3.5,63.63,63.63,0,0,1,5.4,3.4,4.94,4.94,0,0,1,2.4,4.1,1.19,1.19,0,0,1-.5,1.1,6.66,6.66,0,0,1-1,.5,3,3,0,0,0-1,.7,2.36,2.36,0,0,0-.5,1.7,6.47,6.47,0,0,0,2.8,5.2,51.49,51.49,0,0,0,6.1,4.1q3.3,1.9,6.1,3.7t2.8,4.2a1.12,1.12,0,0,1-.6,1.1,2.66,2.66,0,0,1-1.2.3H142.8c-.67,0-1.1.5-1.3,1.5a12.74,12.74,0,0,0-.3,2.3c0,1.87,1,3.63,3,5.3a58.46,58.46,0,0,0,6.7,4.8c2.47,1.53,4.83,3,7.1,4.3a11.75,11.75,0,0,1,4.4,3.8,2.34,2.34,0,0,1-1.3,1.6q-1.09.6-2.4,1.2a24.2,24.2,0,0,0-2.3,1.2,1.68,1.68,0,0,0-1,1.4V180c0,1.07-.8,2-2.4,2.7a24.33,24.33,0,0,1-5.6,1.7,51.9,51.9,0,0,1-6.2.8c-2,.13-3.4.2-4.2.2-1.07,0-2.27,0-3.6.1a3.24,3.24,0,0,1-3-1.3c-.4-.4-.67-1.8-.8-4.2s-.2-5.33-.2-8.8,0-7.2.1-11.2.13-7.8.2-11.4.13-6.83.2-9.7.1-4.9.1-6.1a1.77,1.77,0,0,0-2-2H56.8l-1.4.6-.6.6a14.05,14.05,0,0,0-.3,2.8c-.07,1.47-.1,3-.1,4.7s0,3.2.1,4.6a13.43,13.43,0,0,0,.3,2.7,6.49,6.49,0,0,0,.7,1.9,3.57,3.57,0,0,1,.5,1.7,4.2,4.2,0,0,1-.6,2.2,4.2,4.2,0,0,0-.6,2.2c0,.67-.07,2-.2,4s-.17,4-.1,6.1a26.48,26.48,0,0,0,.7,5.5c.4,1.6,1.13,2.4,2.2,2.4q12.6,0,24.8-.1t24.8.1h9.6c2,0,3.83,0,5.5.1a25.36,25.36,0,0,1,3.5.3,4.24,4.24,0,0,1-1.4,1.5,3.45,3.45,0,0,1-2,.7H58.4c-.4,0-.93.33-1.6,1a67,67,0,0,1-5.5,5,24,24,0,0,1-5.2,3.2,23.58,23.58,0,0,1-6,1.7,50.91,50.91,0,0,1-7.5.5,1.61,1.61,0,0,1-1.5-1,6.28,6.28,0,0,1-.6-2.3,16.12,16.12,0,0,1,0-2.6c.07-.87.1-1.5.1-1.9q0-15.41-.6-30.6t-.6-30.6a2.13,2.13,0,0,1,.4-1.2,1.18,1.18,0,0,1,1-.6,16.66,16.66,0,0,1,6.6,1.7c2.53,1.13,5.07,2.37,7.6,3.7s4.93,2.57,7.2,3.7a13.35,13.35,0,0,0,5.6,1.7h68.4c.8,0,1.87-.6,3.2-1.8a29.36,29.36,0,0,0,3.8-4.2,39.29,39.29,0,0,0,3.1-4.8,8.67,8.67,0,0,0,1.3-3.6,1.41,1.41,0,0,0-1.6-1.6H38.2q-9.6,0-18.9.2A98.6,98.6,0,0,1,.6,109.6ZM2,42.8H72.8l.6.6-.6.6H2l-.6-.6Zm14.6,44H72.8l.6.6-.6.6H16.6l-.6-.6Zm8.4-20a3,3,0,0,1-1.1-.3,1,1,0,0,1-.7-.9,12,12,0,0,1,3.3-.2q3.11,0,7.8-.1t10.5-.1c3.87,0,7.63,0,11.3.1s7,.1,10,.1h6.7l.6.6-.6.8ZM26.2,20H72.6l1.4.6.4.6a17.44,17.44,0,0,1-3.8.2q-3.41,0-8.4.1c-3.33.07-7,.1-10.9.1s-7.7,0-11.3-.1-6.77-.1-9.5-.1H25a.82.82,0,0,1-.6-.2l.4-.6ZM125,150.6a.82.82,0,0,1-.6.2h-8.9q-5.9,0-13,.1t-14.7.1q-7.6,0-13.8-.1t-10.2-.1a18.79,18.79,0,0,1-4.2-.2c0-.27.33-.53,1-.8a4.49,4.49,0,0,1,1.4-.4h61.2l1.4.6ZM108.6,42.8c.67,0,1.9,0,3.7-.1s3.7-.1,5.7-.1,3.83,0,5.5.1a12.19,12.19,0,0,1,2.9.3l-.4.6a7.27,7.27,0,0,1-3,.5c-1.6.07-3.37.1-5.3.1s-3.77,0-5.5-.1-2.93-.1-3.6-.1l-.6-.6Z"/></g></g></svg>