<svg xmlns="http://www.w3.org/2000/svg" viewBox="0 0 186.36 186.4"><defs><style>.cls-1{fill:#30353a;}</style></defs><title>black-2</title><g id="レイヤー_2" data-name="レイヤー 2"><g id="top-page"><path class="cls-1" d="M17.56,101.6a3.7,3.7,0,0,0-2,.4,6,6,0,0,0-1.2,1.1c-.4.47-.74.83-1,1.1q-1,.8-2.7,2.4t-3.6,3.1q-1.9,1.5-3.7,2.7a8.25,8.25,0,0,1-3,1.4c-.54-.4-.47-1.43.2-3.1s1.53-3.53,2.6-5.6,2.13-4,3.2-5.9a41.14,41.14,0,0,0,2-3.8q3.8-8,7-16.2t6.2-16.6c.26-.67.7-2,1.3-4s1.3-4,2.1-6.1a47.05,47.05,0,0,1,2.5-5.5c.86-1.6,1.63-2.4,2.3-2.4q1.39,0,5.6,2t8.7,4.6a95.19,95.19,0,0,1,8.1,5.2q3.6,2.6,3.6,3.8c0,1.2-.87,2.3-2.6,3.3s-3.64,2.13-5.7,3.4a26.91,26.91,0,0,0-5.7,4.7,9.87,9.87,0,0,0-2.6,7,1.8,1.8,0,0,0,1,1.6,18.91,18.91,0,0,0,2.1,1.1c.73.33,1.43.67,2.1,1s1,.7,1,1.1a2.46,2.46,0,0,1-1.7,2.2A2.44,2.44,0,0,0,42,87.8v91c0,1.33-.94,2.47-2.8,3.4a27.79,27.79,0,0,1-6.4,2.2,70.67,70.67,0,0,1-7.1,1.2c-2.34.27-4,.4-4.9.4a1.77,1.77,0,0,1-2-2q0-15.6.1-31.2t.1-31.2v-10c0-1.87,0-3.63-.1-5.3a21.58,21.58,0,0,0-.5-4.1Zm-16.2-50a10,10,0,0,1,1.4-3.2q1.2-2,2.7-4.2t3-4.3c1-1.4,1.76-2.5,2.3-3.3q5.19-8.4,9.7-17.3A108,108,0,0,0,27.76.8a2.31,2.31,0,0,0,.5-.3,1.87,1.87,0,0,1,.5-.3q.79-.4,5,1.5t8.9,4.5a90,90,0,0,1,8.5,5.3Q55,14.2,55,15.4c0,.8-.8,1.43-2.4,1.9a8,8,0,0,0-3.2,1.5l-24,21.4a12.35,12.35,0,0,1-2.7,1.7c-1,.47-2,1-2.9,1.5a67.26,67.26,0,0,0-8.5,5.5,17.1,17.1,0,0,1-9.1,3.5Zm76,53.2a1.33,1.33,0,0,0-1,.4,10.81,10.81,0,0,0-1.9,3.2c-.47,1.2-1,2.33-1.5,3.4l-3.9,8.4q-2.7,5.8-6,12t-6.5,11.3q-3.21,5.1-5.2,6.1l-.8-.8a156.42,156.42,0,0,1,2.2-26.2q2.19-13,4-26.2.6-4.2.9-8.5t.7-8.5c.13-1.33.2-2.67.2-4a20.1,20.1,0,0,1,.4-4c.26-1.33.93-2,2-2a26.26,26.26,0,0,1,8.5,1.4A26.17,26.17,0,0,0,78,72.2a13.91,13.91,0,0,0,2.2-.2,1.4,1.4,0,0,0,1.2-1.6q0-17.21-.9-34.2T79.56,2a1.77,1.77,0,0,1,2-2q1.59,0,5.9.4t9,1q4.7.6,8.6,1.4c2.6.53,4.23,1.07,4.9,1.6a2.1,2.1,0,0,1-1.1,1.3l-2,1.1a7.38,7.38,0,0,0-2,1.6,4,4,0,0,0-.9,2.8v6.2c0,2.8.06,5.77.2,8.9s.26,6,.4,8.6a17.72,17.72,0,0,0,.8,5.3,2.48,2.48,0,0,0,3.2,1.7,11.35,11.35,0,0,0,4.9-2.6,25.56,25.56,0,0,0,4.5-5,9.6,9.6,0,0,0,2-5.3,32,32,0,0,0-.9-7.4c-.6-2.53-1.24-4.93-1.9-7.2-.27-.67-.6-1.67-1-3a11.55,11.55,0,0,1-.6-3c0-.67.23-1.07.7-1.2a5.5,5.5,0,0,1,1.5-.2,8.19,8.19,0,0,1,4.4,1.4q2.19,1.39,4.5,3.2a46.06,46.06,0,0,0,4.6,3.2,9,9,0,0,0,4.7,1.4h14l1.4-.6a36.74,36.74,0,0,0,5.2-7.1,49.83,49.83,0,0,1,5-7.3,3,3,0,0,1,1.2-.4q.6,0,3.6,2.4t6.3,5.4q3.3,3,6,5.7t2.7,3.3c0,.27,0,.67-.1,1.2a.82.82,0,0,1-.9.8h-39c-.27,0-.87.77-1.8,2.3s-1.9,3.27-2.9,5.2-1.87,3.8-2.6,5.6-1,2.9-.9,3.3a7.14,7.14,0,0,0,3,4q2.59,2,4.2,3.2l.4.8a2.48,2.48,0,0,1-2.6,1.6H106a1.77,1.77,0,0,0-2,2V174.8a6.12,6.12,0,0,1-2.1,4.3,21.45,21.45,0,0,1-5.1,3.7,37.51,37.51,0,0,1-6.1,2.6,17,17,0,0,1-4.9,1,8.06,8.06,0,0,1-3.2-.8,2.57,2.57,0,0,1-1.8-2.4V109.6a4.89,4.89,0,0,0-1-2.3l-1.4-2.1Zm-3.2-60c-.27.67-1.37,1-3.3,1.1s-3.24.1-3.9.1h-2.5c-1.27,0-2.6,0-4-.1a19,19,0,0,1-3.7-.5c-1.07-.27-1.6-.6-1.6-1q0-1.2,2.7-1.5a36.69,36.69,0,0,1,6.1-.1,46.22,46.22,0,0,1,6.4.8A11.31,11.31,0,0,1,74.16,44.8Zm42.2,85.4a6.76,6.76,0,0,1-.4-2.3c-.14-1.4-.24-2.93-.3-4.6s-.17-3.27-.3-4.8-.2-2.57-.2-3.1q-1.6-10.2-3.2-20.3a130.42,130.42,0,0,1-1.6-20.5,4,4,0,0,1,.5-2.3q.49-.7,2.1.3a16.6,16.6,0,0,1,3.6,2.8l3.4,3.4a54.66,54.66,0,0,1,12.6,18.5,60.3,60.3,0,0,1,3.8,22.1,14.4,14.4,0,0,1-1,4.9,20.29,20.29,0,0,1-2.7,5,18.48,18.48,0,0,1-3.9,3.9,7.7,7.7,0,0,1-4.6,1.6,8.44,8.44,0,0,1-4.4-1.5A10.32,10.32,0,0,1,116.36,130.2Zm68.2-64.6c-.67,0-1.7-.07-3.1-.2s-2.87-.2-4.4-.2a14.32,14.32,0,0,0-4,.5c-1.14.33-1.7,1-1.7,1.9v98a14.19,14.19,0,0,1-2.6,8.7,21.52,21.52,0,0,1-6.6,5.8,46,46,0,0,1-8.6,3.8,75.81,75.81,0,0,1-8.6,2.3.82.82,0,0,0-.4.1.88.88,0,0,1-.4.1c-.67,0-1.07-.17-1.2-.5a8.93,8.93,0,0,1-.4-1.3,54.5,54.5,0,0,1-1.2-5.4,41.6,41.6,0,0,0-1-4.5,22.42,22.42,0,0,0-1.7-4.2,33.84,33.84,0,0,0-3.1-4.7,14.81,14.81,0,0,0-1-1.3,2.28,2.28,0,0,1-.6-1.5c0-.67.66-1.13,2-1.4s2.8-.53,4.4-.8a15.53,15.53,0,0,0,4.4-1.4,3.35,3.35,0,0,0,2-3.2V67.6c0-1.33-1-2.07-3.1-2.2a46,46,0,0,0-6.7.1c-2.4.2-4.64.3-6.7.3s-3.1-.6-3.1-1.8a20.58,20.58,0,0,1,4-.3q3.6-.11,7.8-.1h13q1.39,0,3.3-2.8t3.9-6.3q2-3.49,3.9-6.3c1.26-1.87,2.3-2.8,3.1-2.8.26,0,1.36.83,3.3,2.5s4.06,3.57,6.4,5.7,4.5,4.17,6.5,6.1a47.21,47.21,0,0,1,3.6,3.7.59.59,0,0,1,.2.4.55.55,0,0,0,.2.4l-.4.8Z"/></g></g></svg>