<svg xmlns="http://www.w3.org/2000/svg" viewBox="0 0 189.2 187.8"><defs><style>.cls-1{fill:#e1c86b;}</style></defs><title>yellow-1</title><g id="レイヤー_2" data-name="レイヤー 2"><g id="top-page"><path class="cls-1" d="M47.8,79a2.13,2.13,0,0,0,.4,1.2,1.18,1.18,0,0,0,1,.6A17.19,17.19,0,0,0,57,78.9,17.19,17.19,0,0,1,64.8,77a3.38,3.38,0,0,1,1,.2.78.78,0,0,1,.6.8q0,1.2-2.8,3.7c-1.87,1.67-3.93,3.47-6.2,5.4s-4.33,3.73-6.2,5.4-2.8,2.77-2.8,3.3v69.6a16.64,16.64,0,0,1-1.7,7.7,22.23,22.23,0,0,1-4.4,5.9,23.41,23.41,0,0,1-6.3,4.3,43.48,43.48,0,0,1-7.4,2.7,13.21,13.21,0,0,1-1.7.4c-.73.13-1.53.3-2.4.5s-1.63.37-2.3.5a2.87,2.87,0,0,0-1.2.4,1.94,1.94,0,0,1-1.8-1.4,19.05,19.05,0,0,1-1.8-4.7q-.6-2.5-1-5.1a43.63,43.63,0,0,0-1.1-5.1,17.71,17.71,0,0,0-2.1-4.7,13,13,0,0,0-2-2.5c-1.07-1.13-1.6-2-1.6-2.5s.3-.67.9-.8a7.09,7.09,0,0,1,1.3-.2,25.45,25.45,0,0,1,4.3.3,9.37,9.37,0,0,0,3,.1,4.28,4.28,0,0,0,2.4-1.3,12.9,12.9,0,0,0,2.3-3.9V116.8A2.12,2.12,0,0,0,23,115a2.83,2.83,0,0,0-2.9,0,16,16,0,0,0-3.3,2.1c-1.07.87-2.1,1.73-3.1,2.6a4.28,4.28,0,0,1-2.3,1.3,1.35,1.35,0,0,1-1.2-.6l-.8-1.2q-2.21-4.8-4.9-11.5T.2,95.8a.82.82,0,0,1-.2-.6q0-1.8,3-2.4t7-1.1c2.67-.33,5.27-.77,7.8-1.3a8.52,8.52,0,0,0,5.4-3,1.33,1.33,0,0,1,.3-.8,1.24,1.24,0,0,0,.3-.6V2a1.77,1.77,0,0,1,2-2c.93,0,2.83.07,5.7.2s5.8.4,8.8.8a68.83,68.83,0,0,1,8,1.5c2.33.6,3.5,1.3,3.5,2.1s-.67,1.8-2,3-2,2.27-2,3.2l1.4,32.6a3.87,3.87,0,0,0,.2,1.2.92.92,0,0,0,1,.6,3.28,3.28,0,0,0,2.9-2,33.86,33.86,0,0,0,2-4.4q.9-2.4,1.8-4.7a4.63,4.63,0,0,1,2.5-2.9,2.72,2.72,0,0,1,1.8,1.1c.67.73,1.33,1.5,2,2.3s1.33,1.57,2,2.3A2.72,2.72,0,0,0,67.2,38h37.6c1.07,0,1.47.47,1.2,1.4a2,2,0,0,1-2.2,1.4h-28a2.19,2.19,0,0,0-2.2,1.5,7.8,7.8,0,0,0-.6,2.9c0,.53.57,1.2,1.7,2a5.73,5.73,0,0,1,2.1,2.2l-.4.8-1.4.6H51.2l-1.4.6-1.4,1.4-.6,1.4ZM3.2,50.2l-.4-.6a8.31,8.31,0,0,1,2.7-.2H16.6a8.91,8.91,0,0,1,2.8.2l-.4.6-1.4.6H4.6Zm164,136.6q-4.39,0-10.1-3.6a110.31,110.31,0,0,1-11.6-8.5q-5.9-4.9-11.4-9.9a91.7,91.7,0,0,0-9.3-7.6,23.23,23.23,0,0,0-8.8,2.1,112.19,112.19,0,0,0-10.3,5q-5.3,2.89-10.1,6a89.86,89.86,0,0,1-8.4,4.9q-4.8,2.6-9.9,4.8a58.22,58.22,0,0,1-10.5,3.4c-1.07.27-2.37.53-3.9.8a6.21,6.21,0,0,1-3.9-.4l.4-.2c1.6-.93,4-2.37,7.2-4.3s6.73-4.2,10.6-6.8,7.87-5.37,12-8.3,7.87-5.8,11.2-8.6a72.38,72.38,0,0,0,8.2-7.9q3.2-3.7,3.2-6.3,0-3-3.1-9.5T102,118.1q-3.6-7.3-6.7-13.8t-3.1-9.5c0-.67.27-1,.8-1s1.63.87,2.9,2.6,2.7,3.93,4.3,6.6,3.3,5.53,5.1,8.6,3.63,5.93,5.5,8.6a41,41,0,0,0,5.6,6.6q2.8,2.6,5.4,2.6c.67,0,1.33-.47,2-1.4a91.34,91.34,0,0,0,4.7-8.6q3.1-6.2,6.4-13.3t5.9-13.5a49,49,0,0,0,3-9l-.4-1.4-1.4-.8H76.8a1,1,0,1,1,0-2h31.6a1.77,1.77,0,0,0,2-2V4.6a1.77,1.77,0,0,1,2-2q6.19,0,13.4.3a57.87,57.87,0,0,1,13,1.9c.4.13.83.3,1.3.5a1.1,1.1,0,0,1,.7,1.1,3.64,3.64,0,0,1-1.2,2.1,12.11,12.11,0,0,1-1.8,1.7l-.6,1.4V76a1.25,1.25,0,0,0,.7,1.3,3.79,3.79,0,0,0,1.5.3,19.13,19.13,0,0,0,2-.1,2.93,2.93,0,0,0,1.8-.9l12.2-12.2,1.2-.4,1.2.4,4.9,4.3q3.3,2.89,6.8,6.2t6.4,6.2a17.54,17.54,0,0,1,3.5,4.3c-.27.93-1.17,1.6-2.7,2a6.71,6.71,0,0,0-3.5,2,19.3,19.3,0,0,0-2.7,4.3q-1.69,3.3-3.6,7.1t-3.7,7.4q-1.8,3.6-2.8,5.4a85.1,85.1,0,0,1-6.2,9.2l-6.8,8.8c-.93,1.2-2.07,2.6-3.4,4.2a28.9,28.9,0,0,0-3,4.2c-.53,1.07-.67,1.83-.4,2.3a6.47,6.47,0,0,0,1.8,1.7,15.51,15.51,0,0,0,4.3,1.9,31.85,31.85,0,0,1,4.5,1.7q9.2,3.79,18.5,7.3t18.9,6.3l.6.8-.6,1.2a46.77,46.77,0,0,0-12.6,9.5,34.46,34.46,0,0,0-8,13.5Zm-26-147.4.6-.8q2.8-.6,5.7-1a28.59,28.59,0,0,0,5.7-1.4,26.15,26.15,0,0,1,2.1-3.6Q157,30,159.1,27.2t4-4.9c1.27-1.4,2.23-2.1,2.9-2.1a9.67,9.67,0,0,1,2.6,1.5q2.21,1.5,5.1,3.7c1.93,1.47,3.9,3,5.9,4.7s3.73,3.23,5.2,4.7a14.55,14.55,0,0,1,2.9,3.7c.47,1,.1,1.5-1.1,1.5H141.8Z"/></g></g></svg>