<svg xmlns="http://www.w3.org/2000/svg" viewBox="0 0 379.69 78.14"><defs><style>.cls-1{fill:#30353a;}.cls-2{fill:#fff;}.cls-10,.cls-2,.cls-3,.cls-4,.cls-6,.cls-8,.cls-9{stroke:#231815;}.cls-2,.cls-4,.cls-6,.cls-7,.cls-8,.cls-9{stroke-linecap:round;}.cls-10,.cls-2,.cls-4,.cls-6,.cls-7,.cls-8,.cls-9{stroke-linejoin:round;}.cls-10,.cls-2,.cls-3,.cls-4,.cls-6,.cls-7,.cls-8,.cls-9{stroke-width:0.5px;}.cls-10,.cls-3,.cls-5{fill:#ec7980;}.cls-3{stroke-miterlimit:10;}.cls-4{fill:#1d1822;}.cls-6{fill:#27272c;}.cls-7,.cls-8{fill:none;}.cls-7{stroke:#da6e7d;}.cls-9{fill:#231815;}</style></defs><title>book</title><g id="レイヤー_2" data-name="レイヤー 2"><g id="top-page"><g id="配布物について"><path class="cls-1" d="M97.93,30.87V26h20v4.92h-7.12c-.08.4-.24,1-.44,1.72h6.72V53.22h-5.16a39.22,39.22,0,0,1,6.71,3.88l-2.43,4.36A54.27,54.27,0,0,0,108.09,57l2.08-3.8h-5.6l2.24,3.44a25.74,25.74,0,0,1-8.16,4.64l-1.92-3.72c-.28,1.28-.64,2-1.4,2.36a5.32,5.32,0,0,1-2.48.36c-1,0-2.72-.12-5.16-.32l-.16-4.52a18.06,18.06,0,0,1-4.24,5.6l-3-4.84a14.15,14.15,0,0,0,3.28-4.79,25.74,25.74,0,0,0,1.44-7.52h-2.6V41.55L80.33,40a65.63,65.63,0,0,0,4.6-14.48l5,1.36a67.83,67.83,0,0,1-3.16,11.72h6.68a67.83,67.83,0,0,1-3.12-11.72l5-1.36a69.08,69.08,0,0,0,3.84,12.8V32.59h5.08a15.7,15.7,0,0,1,.4-1.72ZM92.05,53.43c.12-1,.2-4.2.2-9.52H90.13a34.94,34.94,0,0,1-2.2,10.67c1.6.2,2.64.32,3,.32C91.57,54.9,91.93,54.39,92.05,53.43Zm7.16-.21V40.59l-1.72,1.24a130.1,130.1,0,0,1-.56,14.59,32.8,32.8,0,0,0,6.12-3.2Zm5.36-16v1.44h6.8V37.19Zm6.8,5h-6.8v1.4h6.8Zm0,5h-6.8v1.44h6.8Z"/><path class="cls-1" d="M142,61.42V45h-4.68V59.34h-5.92V47.79a29.62,29.62,0,0,1-4.36,4L124.49,46a32.5,32.5,0,0,0,10-12.2h-8.32V28.51h10.2a39.05,39.05,0,0,0,.92-4l6.4.36a33.31,33.31,0,0,1-.76,3.64h18v5.28H141.17a35.92,35.92,0,0,1-3,6.08H142V35.59h6.24v4.28h11.8v12.8c0,1.07,0,1.95,0,2.55a4.79,4.79,0,0,1-.88,2.76,2.82,2.82,0,0,1-1.16.56,13.39,13.39,0,0,1-4.16.36c-.8,0-2.12-.08-3.92-.2l-.16-5.07c1.36.11,2.4.11,3.24.11,1,0,1,0,1-.84V45h-5.76V61.42Z"/><path class="cls-1" d="M168.49,41.71a103.36,103.36,0,0,0,1.6-15l4.4.36c0,1-.08,2.32-.2,4h.8V25.19H181v5.92h2.88V35a39.36,39.36,0,0,0,4-10.48l5.72.68c-.28,1.12-.68,2.44-1.16,3.88h13c0,5.32-.12,9.68-.2,13a130.87,130.87,0,0,1-1,14.39,7.59,7.59,0,0,1-1,2.92c-.92,1.44-1.6,1.48-3.2,1.48-1.92,0-4.28-.08-7.24-.24l-.24-4.24a32.54,32.54,0,0,1-5.52,4.88l-4-4.12a37.14,37.14,0,0,0,9.52-9.67,45.19,45.19,0,0,0,6.2-13.16h-1.32a47.66,47.66,0,0,1-5.16,10.64,32.93,32.93,0,0,1-6.8,7.76l-3.8-4-.72.2V61h-5.92V50.35c-2.4.52-4.28.87-5.68,1.12l-.52-5.16c2-.36,4.12-.72,6.2-1.16v-9h-1.2c-.2,2.08-.56,4.32-1,6.68Zm12.92-3.12a20.91,20.91,0,0,0,1.68-2.4H181v7.52c.68-.2,1.68-.48,3-.92l.24,3.52a34.63,34.63,0,0,0,7.52-12h-1.48a36,36,0,0,1-5.16,8.48Zm12,16.79c1.32.12,2.56.16,3.76.16a.81.81,0,0,0,.72-.48c.44-.67.76-3.08,1-8A47.18,47.18,0,0,1,193.45,55.38Z"/><path class="cls-1" d="M227,53.67c-.08.07-8.12,4.47-8.12,4.47-1.8-3.12-6.8-12.47-2.08-28.23l6.12,1.72c-3.24,10.92-1.48,17-.6,19.51l2.48-1.39Zm17.12-13L240.41,38l2.08-2.76a9.19,9.19,0,0,0-7.72-1,38.53,38.53,0,0,0-4,1.44l-2.32-5.88a31.26,31.26,0,0,1,8.16-2.2c3.92-.28,8,1,13.44,5.52Zm-10.56,9.72c1.56,1.71,3.36,2.79,4.48,2.88a7.17,7.17,0,0,0,5.76-2.84l4.8,4.15c-3,3.24-6.44,4.92-10.16,4.92s-7-2.08-9.56-4.8Z"/><path class="cls-1" d="M272.49,53.39c4-.72,8-2.08,10.72-4.84a8.13,8.13,0,0,0,.76-10c-2.08-3.08-6.32-3.44-9.8-3.32a64,64,0,0,0-14.44,2.64l-2.2-8.16,4.28-1.24.56,2.12a56.32,56.32,0,0,1,13.2-1.76c6.32,0,11.24,2.16,14,6.08a14.55,14.55,0,0,1-.32,16.76c-4.48,5.67-12.16,7.59-15.44,8.19Z"/><path class="cls-1" d="M321.21,50.67l-3.52,9.11-3-1.12c-10.84-4-13-13-13-25.31v-3.2h6.48v3.2c0,12.76,2.72,16.72,7.6,18.87l1.24-3.11Zm16.31-1.28H331V46.23c0-4.56-1.32-7.6-3.8-9.4l-1.16,2.64-4.16-1.72L325.77,29,329,30.51c3.92,1.84,8.51,6.24,8.51,15.72Z"/><path class="cls-1" d="M370.73,60.9c-6.44-3.12-10.32-7.2-11.52-12.31-1-4.2-.16-8.88,2.36-13.84l-14,1.08-.72-8.44,4.44-.36.24,2.52,27.68-2.12.44,6-10.28.76c-2.56,3.92-4.88,8.72-3.92,12.92.76,3.12,3.68,5.87,8.48,8.07Z"/><path class="cls-2" d="M30.42,66.23v1.6a.89.89,0,0,0,.06.4.71.71,0,0,0,.21.28A2.42,2.42,0,0,0,34.64,66"/><path class="cls-2" d="M28.84,67.64A13,13,0,0,0,27,70.22c-.13.43,0,2.61.5,2.61a46.35,46.35,0,0,0,3.28-4.46,2.08,2.08,0,0,1-.33-1.74A8.29,8.29,0,0,0,28.84,67.64Z"/><path class="cls-2" d="M30.75,68.37a12.19,12.19,0,0,0,.68,3.95c.08.24.48,1.2.71,1.29a3.52,3.52,0,0,0,1.47-.3c2.94-1.27,3.23-4.52,2.89-5.06-.12-.21-1.37-1.91-1.54-1.54C34.3,68.08,31.6,68.63,30.75,68.37Z"/><path class="cls-3" d="M7.73,61.13A14.66,14.66,0,0,1,3.66,69,10.17,10.17,0,0,0,9.3,64.26a10.13,10.13,0,0,0,4.36,10.55,8.12,8.12,0,0,1,.28-5.66,6,6,0,0,0,3,5.86c-.18-.66-.05-1.34-.23-2a25.49,25.49,0,0,0,3.76-2.26,8.14,8.14,0,0,0,2.9-3l-2.05,5.27c2.39-.47,4.5-2.4,6.06-4.28s1.81-4.89,5.12-4.74c.31,0,.59-.2.9-.16a2,2,0,0,1,.8.35A7.19,7.19,0,0,1,36,74.49a11.91,11.91,0,0,0,5.37-3.09L40.1,73.81a12.85,12.85,0,0,0,5.47-5.31,17.47,17.47,0,0,1-2.53,8c3.34-.89,7-2,8.82-5A20.08,20.08,0,0,1,49,77.15a16.86,16.86,0,0,0,7.77-9.43,9,9,0,0,0,7.38,5.65,8.73,8.73,0,0,1-3.42-4.9c-2-6-.91-12.36.41-18.34a58.72,58.72,0,0,0,1.11-18.22,26.39,26.39,0,0,0-2.82-9.61C52,7.79,37.36,8.58,30.84,9.43A27.37,27.37,0,0,0,14.5,17.52a25.28,25.28,0,0,0-8,14.65c-1.12,6.11-.78,12,.84,19.8A30.38,30.38,0,0,1,7.73,61.13Z"/><path class="cls-4" d="M14.38,26.35c-1.52,6,0,17.86.79,23.55.4,3-3.35,5.57-1.29,9.34-2.43-.7-6-3.51-7.59-5.5S1.8,46.63,2.68,42.93A94.27,94.27,0,0,1,14.38,26.35Z"/><path class="cls-2" d="M13.61,59.7A26.43,26.43,0,0,1,4.9,50.47C1.32,44.08,4,40.82,2.41,42.76.6,45,4.4,56,13.61,59.7Z"/><path class="cls-3" d="M7,44c0,10.75,4.36,18.43,6.88,21.14A92.72,92.72,0,0,1,13,54.19"/><path class="cls-2" d="M51.94,59.65c-14,10.49-26.6,6.18-31.6,4.12a16.68,16.68,0,0,1-5.51-3.2,7.35,7.35,0,0,1-2.24-5.48C12.73,53,13.6,52,14,49.91c.41-2.28-.91-4.34-2-6.4a18.07,18.07,0,0,1-1.42-12.86c2.88-10.75,11-16.9,22.75-18.73a30.91,30.91,0,0,1,14.24,1.39c7.66,2.5,11.22,9.18,13,17s.19,13.21-.81,18.19C59.12,51.51,54.37,57.83,51.94,59.65Z"/><path class="cls-5" d="M9.37,25.51c14-20.46,32.7-16,38.29-13.53a24.68,24.68,0,0,1,11.43,11.1c2.51,4.79,3.08,9.81,2.76,15.21-.69,11.84-10.27,18.22-10.2,15.13.21-9.28,1.67-15.79-2-22.62-1.59-2.92-4.28-8.95-7.37-7.71-15.45,6.16-13.48-8.91-25.35,9"/><path class="cls-4" d="M66.14,45.77s.62,2.24-3.28,6.17A30.64,30.64,0,0,1,48.8,60c3-6.09,3.35-12.68,4.71-19.32.7-3.39.92-14.84.92-14.84C59.53,32,66.14,45.77,66.14,45.77Z"/><path class="cls-2" d="M66,45.51s.15-.53.57.85c.7,2.3-8.3,12.33-17.41,13.55C63.23,54,66,45.51,66,45.51Z"/><path class="cls-3" d="M9.88,25.11C5,32.93,5.36,43.08,8.36,49.78A20.13,20.13,0,0,0,13,55.92a57.61,57.61,0,0,1-1.42-8.17c.64,1.66,2.67,5,4.1,6.13-3.59-10.34.81-22.59,10-31-2.51,6.57,1.68,18.36,7.4,24.37,4.85-5.33,8-13,9.85-19.93,2,8.29,3.88,19,2.16,28.34,1.85-2.58,3.55-6.53,3.41-9.7A55.31,55.31,0,0,1,46.6,65.87C48,64.05,56.23,57.76,57.52,41a34.47,34.47,0,0,0-4.45-20"/><path class="cls-3" d="M29.49,14.18c-4.87,3.58-6.3,11.5-6.43,14.28-.17,3.54-.33,7.12.63,10.53A19.7,19.7,0,0,0,29,48.06a21.52,21.52,0,0,1-1.32-7.24,21.34,21.34,0,0,0,8.43,13.06c-2.37-7.66-1.63-16,.26-23.74"/><path class="cls-6" d="M28.32,71.78a20.53,20.53,0,0,0-2,4.52c.16.67,1.66.91,1.95.93s.42-.85.75-1.91A27.32,27.32,0,0,1,30.42,71,5.08,5.08,0,0,0,30.7,70c.22-1.24-.89-.11-1.2.21A14.49,14.49,0,0,0,28.32,71.78Z"/><path class="cls-6" d="M30.06,71.19a16.28,16.28,0,0,0,.05,6,.55.55,0,0,0,.73.58c.56,0,1.13-.26,1.69-.32,0,0-.73-4.51-.81-5-.12-.61-.17-1.94-.61-2.42S30.16,70.69,30.06,71.19Z"/><path class="cls-6" d="M26.83,70.83a1.29,1.29,0,0,0-.33.37,1.21,1.21,0,0,0-.1.65,4,4,0,0,0,.51,1.72.53.53,0,0,0,.26.27c.24.1.48-.14.63-.35.77-1.06,1.46-2.19,2.15-3.31.15-.24.65-.94.52-1.26s-.77,0-1.08.18A12.66,12.66,0,0,0,26.83,70.83Z"/><path class="cls-6" d="M31.59,68.84c.36.14,2.56,4.94,2,5.36a20.34,20.34,0,0,1-2.32.19.42.42,0,0,1-.16-.32,30.85,30.85,0,0,1-.3-3.59C30.82,70,30.27,68.34,31.59,68.84Z"/><path class="cls-6" d="M29.49,70.41l1.19.19s.09,0,.12,0,0-.06,0-.09c.11-.6.26-1.21.33-1.82a1.2,1.2,0,0,0-1.1.2C29.93,69,29.32,70.38,29.49,70.41Z"/><path class="cls-7" d="M41.32,55.87a1.16,1.16,0,0,0-.36.46"/><path class="cls-7" d="M42.81,55.93a1.65,1.65,0,0,1-.32.46"/><path class="cls-7" d="M17.43,54.23a.8.8,0,0,0-.51.46"/><path class="cls-7" d="M18.72,54.47l-.47.41"/><path class="cls-8" d="M27.48,53.62l-.13.13"/><path class="cls-8" d="M25.89,58.16c2.21.52,6.86-.93,7.13-.79a4.88,4.88,0,0,1,2,3.14,3.1,3.1,0,0,1-.83,2.68"/><path class="cls-6" d="M26.66,60.22a1.59,1.59,0,0,1-.77-2.06,6,6,0,0,0,2.95,0C29.05,58.1,27.09,58.88,26.66,60.22Z"/><path class="cls-2" d="M6.65,70.65A47.91,47.91,0,0,1,5.21,63.9c-.15-1.24-2,.17-2.23,1.06a11.05,11.05,0,0,0,.83,5.47A5.35,5.35,0,0,0,1,75.4c.05.2,1.32,2.34,2.41,2.47C4.7,78,8.17,76.59,8.62,76c1.07-1.3.53-5.06,0-5.5-1-.81-3.73,1-3.88,1.62s.59,1.56.75,1.66a13.51,13.51,0,0,0,2.33-.73"/><path class="cls-2" d="M.25,74.59c-.06,1,1.84,2.36,2.27,2.28S4.91,74.46,5,74.11s-.79-4.51-2.09-3.86C2.35,70.55.36,73,.25,74.59Z"/><path class="cls-8" d="M1.68,74.09C1.93,74.65,2.74,76,3.35,76"/><path class="cls-8" d="M2.79,72.28a5.56,5.56,0,0,0,1.73,2.49"/><path class="cls-8" d="M39.16,34.22a16.17,16.17,0,0,1,7.24,2.4"/><path class="cls-8" d="M16.48,35.4a12.39,12.39,0,0,1,6.05-1.3"/><path class="cls-8" d="M14.41,41.9A11.45,11.45,0,0,1,24,39.69"/><path class="cls-9" d="M18.62,51.29c.19.64.67,1.54,1.27,1.72,3.94,1.18,4.8-10.37,1.77-10.83C19.2,41.81,17.61,47.79,18.62,51.29Z"/><path class="cls-8" d="M37.79,39.9c4.23-.53,8.28,1.82,11.1,4.44"/><path class="cls-9" d="M38,48c-.34,2.89.33,5.85,2.28,5.9,1.58,0,2.79-2.39,3.26-5.24.36-2.18,0-5.73-2-6.18S38.33,45,38,48Z"/><path class="cls-10" d="M36.08,8.33A21.27,21.27,0,0,1,38.9.25S32.59,1.57,36.08,8.33Z"/></g></g></g></svg>