<svg xmlns="http://www.w3.org/2000/svg" viewBox="0 0 428.3 69.56"><defs><style>.cls-1{fill:#c45c66;}.cls-2{fill:#30353a;}</style></defs><title>logo</title><g id="レイヤー_2" data-name="レイヤー 2"><g id="top-page"><g id="logo"><path class="cls-1" d="M29.38,9.53,19.27,5.74,19,5.64l.71-2.23a.21.21,0,0,0-.14-.27l-.95-.31a.22.22,0,0,0-.27.14L16.21,9.58.18,58.52c-.42,1.26-.11,2.06.92,2.39l15.3,5.75a1.61,1.61,0,0,0,.29.09l-.46,2.16a.44.44,0,0,0,.34.52l.54.12a.44.44,0,0,0,.52-.34L19,62.8,30.15,11.43C30.43,10.44,30.18,9.81,29.38,9.53Z"/><path class="cls-1" d="M58.74,61.33l-1.32-3a.49.49,0,0,0,0-.11L43.21,25.53q-.36-1.11-1.83-.84l-9.05,2h0l-.45-1.93a.21.21,0,0,0-.26-.16l-1,.22a.23.23,0,0,0-.17.26l.93,4,8,36.61q.34,1.47,1.68,1l15.53-6.62.79,1.79a.45.45,0,0,0,.59.23l.51-.23A.43.43,0,0,0,58.74,61.33Z"/><path class="cls-1" d="M45.11,22.67l-.74-1.59a9,9,0,0,0-8.51-5.17L34,16h0A11.66,11.66,0,0,0,40.71,4.91h0a11.67,11.67,0,0,0,11.08,6.68h0A11.5,11.5,0,0,0,45.1,22.44Z"/><path class="cls-1" d="M55.33,15.71l-.12-1.36a7,7,0,0,0-4.78-6l-1.35-.43h0a9,9,0,0,0,7.83-6.25h0a9,9,0,0,0,6.25,7.83h0a8.91,8.91,0,0,0-7.78,6.08Z"/><path class="cls-2" d="M107.37,27.23a.21.21,0,0,0-.22-.21l-25.21.44-13.79.11c-1.12.05-1.59.61-1.4,1.68L69.34,46l-2.83.5a.32.32,0,0,0-.26.37l.14.78a.32.32,0,0,0,.37.26l3.82-.67.31,0,31.65-5.54c.8-.1,1.19-.5,1.19-1.2l.42-11.93s0,0,0,0l3-.06a.22.22,0,0,0,.22-.23Z"/><path class="cls-2" d="M161.63,25.56a.22.22,0,0,0-.25-.18l-8.85,1.56-4.7.76.29-3.15a1.42,1.42,0,0,0-.84-1.75l-4.95-1,9.23-1.21c1.17-.05,1.68-.58,1.54-1.61L150.57,1c-.14-.94-.7-1.24-1.68-.91L123.83,9.88l-.17.09-3.39,1.32a.33.33,0,0,0-.19.42l.29.73a.33.33,0,0,0,.42.19l2.3-.9L125,22.59c.18.89.79,1.28,1.82,1.19l9.93-1.3-2.23,7.37L117,32.69c-1.13.24-1.55.87-1.27,1.9l3.37,15.16c.28,1,.87,1.38,1.76,1L129.05,48l-4,13.29c-.28,1.12.11,1.8,1.19,2l16.07,3.51c1.27.33,2,0,2.11-1.05l2.13-23.68,11.76-4a1.69,1.69,0,0,0,1.13-1.69l-.35-9c0-.09,0-.17,0-.25l2.56-.45a.23.23,0,0,0,.18-.26Z"/><path class="cls-2" d="M207.73,37.25l-14.9-4.46,0-1.51.69-16.87a.21.21,0,0,0-.21-.22l-1,0a.2.2,0,0,0-.22.2L192,17.11l-15.46-.84c-.89-.09-1.26.35-1.12,1.33L176.91,28l-.71-.21-7-2.14a.22.22,0,0,0-.27.14l-.29,1a.21.21,0,0,0,.14.27l2.49.77-1,18c0,.89.38,1.28,1.27,1.19l7.93-.42,2.74,19.51c.14.8.67,1.15,1.61,1.05l6.46-.56a1.38,1.38,0,0,0,1.33-1.47l.69-19.2,4.57-.24-.91,9c0,.75.38,1.12,1.26,1.12l4.88-.5-.57,2.11a.46.46,0,0,0,.31.55l.54.14a.42.42,0,0,0,.53-.31l.85-3.11a.65.65,0,0,0,.06-.21l4.35-16C208.46,37.84,208.29,37.44,207.73,37.25Z"/><path class="cls-2" d="M238.36,30.24l-9.26-1.83a1.41,1.41,0,0,0-1.83.91L223.38,43a.09.09,0,0,0,0,.06L218,61.53a.45.45,0,0,0,.31.55l.53.15a.43.43,0,0,0,.54-.3l.57-2,14.62,4.1c1,.29,1.64,0,1.83-.84l3.22-30.95A1.54,1.54,0,0,0,238.36,30.24Z"/><path class="cls-2" d="M273.94,58.66l-2.73-9.75c0-.12-.06-.22-.09-.32l2.45-.38a.21.21,0,0,0,.18-.24l-.15-1a.23.23,0,0,0-.25-.19L258.49,49.1l-1,.16,3.16-39.52a1.52,1.52,0,0,0-1.54-1.89L241,5.39a4.14,4.14,0,0,0-.63-.09l-.22-2a.22.22,0,0,0-.24-.2l-1,.11a.21.21,0,0,0-.19.24l.52,5L244.82,65q.06,1.55,1.47,1l26.39-5.61C273.71,60.09,274.13,59.5,273.94,58.66Z"/><path class="cls-1" d="M286,18v.12L287.59,33c.09,1.17.63,1.64,1.61,1.41l27.58-4.71a1.5,1.5,0,0,0,1.2-1.68l-.42-8.21c0-.84-.52-1.29-1.55-1.33l-28.63-1.83h0l-3.52-.22a.43.43,0,0,0-.47.41l0,.55a.44.44,0,0,0,.41.47Z"/><path class="cls-1" d="M326.39,53.45l-.31-1a.22.22,0,0,0-.27-.14l-2,.64-.69-9.42c0-1-.58-1.47-1.75-1.33l-36.08,4.7q-1.89.29-1.68,1.68l2,16.22c.24,1.17.87,1.61,1.9,1.33l30.46-9.81,8.34-2.64A.22.22,0,0,0,326.39,53.45Z"/><path class="cls-2" d="M375.32,39.8a.22.22,0,0,0-.25-.18l-2.37.4.4-11.47c.09-.79-.28-1.21-1.12-1.26l-33,.26h-5.76a.45.45,0,0,0-.44.45v.55a.44.44,0,0,0,.43.44h2.43l0,.26L338.29,46c.19.93.7,1.33,1.54,1.19L370,41.93,375.3,41a.22.22,0,0,0,.18-.25Z"/><path class="cls-2" d="M428.16,28.48a.23.23,0,0,0-.25-.19l-11.16,1.55-12.07,1.55L407,5.18c0-1.26-.49-1.94-1.62-2L387,4a3.76,3.76,0,0,0-.5.07l-.2-2a.21.21,0,0,0-.23-.2l-1,.1a.21.21,0,0,0-.19.24l.34,3.5a4.32,4.32,0,0,0,0,.5l5.12,58.26c.05,1.31.66,1.89,1.83,1.75l8.16-1-.17,2a.44.44,0,0,0,.4.48l.55,0a.45.45,0,0,0,.48-.4l.47-5.6,1.53-17.63L422.4,48c1.26.42,1.92-.07,2-1.47l1.69-15.58a2.9,2.9,0,0,0,0-.94l2.08-.28a.23.23,0,0,0,.19-.25Z"/></g></g></g></svg>