<svg xmlns="http://www.w3.org/2000/svg" viewBox="0 0 330.5 81.64"><defs><style>.cls-1{fill:#30353a;}.cls-2{fill:#fff;}.cls-2,.cls-3,.cls-4,.cls-7,.cls-8{stroke:#231815;}.cls-2,.cls-4,.cls-6,.cls-7,.cls-8{stroke-linecap:round;}.cls-2,.cls-3,.cls-4,.cls-6,.cls-7,.cls-8{stroke-linejoin:round;stroke-width:0.5px;}.cls-3,.cls-5{fill:#ec7980;}.cls-4{fill:#1d1822;}.cls-6,.cls-7{fill:none;}.cls-6{stroke:#da6e7d;}.cls-8{fill:#27272c;}</style></defs><title>member</title><g id="レイヤー_2" data-name="レイヤー 2"><g id="top-page"><g id="メンバー紹介"><path class="cls-1" d="M97.7,61c-1.2-3.2-2.4-6.32-4.68-9.08l-11.32,14-4.84-3.84L88.22,47.93s0,0-.12-.08c-2.68-1.8-5.76-2.56-9.12-3.44l1.72-6a33.55,33.55,0,0,1,11.52,4.72l7.28-9.16-2.44-2,2.84-3.44,7.4,5.76L97,47.05c3,3.43,4.84,7.15,6.64,11.91Z"/><path class="cls-1" d="M120,35.89l3.24-5.48,13.6,7.64-3.2,5.56Zm2.4,28.43L120.26,56,124.58,55l.56,2.12c9.92-3.2,17.44-9.51,22.8-18.83l5.64,3.24c-3.44,5.92-7.36,10.91-12.76,14.79A51.53,51.53,0,0,1,122.38,64.32Z"/><path class="cls-1" d="M161.18,61.8l11.88-31.59,6.08,2.08-12,31.91Zm33.08-1.4a35.43,35.43,0,0,1-7.84-6.52,25.78,25.78,0,0,1-5.08-8.39,44.4,44.4,0,0,1-1.76-7.32l9.6-1.64.72,4.32-3.16.48c1.92,7.44,8.4,12,11.12,13.87ZM188,35.81l-1.08-5.92,3.8-.72,1.16,5.92Zm5.4,2.2-1-5.92,3.84-.72,1,5.92Z"/><path class="cls-1" d="M240.1,44.09v6.48H206.74V44.09Z"/><path class="cls-1" d="M248.66,62.8c.56-3.8,1-7.4,1.16-10.84l3.52.24c-.2,3.68-.56,7.4-1.12,11.2Zm.08-24.11,2.12-6c.28.32,1,1.2,1.24,1.56.8-1.88,1.52-3.68,2.12-5.4l4.72,1.44c-1.2,2.84-2.48,5.6-3.76,8.12a8.66,8.66,0,0,0,.64.88c1.44-2.52,2.6-4.6,3.44-6.28l4.56,1.72c-1.16,2.12-2.36,4.28-3.64,6.52l2.88-.76,1,3.76c3.4-1.76,5.48-4.72,6.28-9H264.3V30.37h21.12c0,6.24-.16,9.8-.64,12.36-.76,3.84-2.08,4.16-4.92,4.24-1.56,0-3.64-.08-6.16-.2l-.12-3.84a15,15,0,0,1-6,5.72h17.16V65h-6.08V63.36h-7.92V65H265V50.36l-3.16.65-.24-1-1.84.12V65.24h-5.88V50.61l-4.56.32-.16-5.6,3.12-.2c.12-.2.48-.76.64-1Zm10.92,3.48L258,44.81l2.24-.16ZM260.78,62q-.18-4.32-.6-10l3.28-.35c.32,3.15.56,6.51.72,10.11Zm5.84-13.31-2.4-3.6q.42,1.5.84,3.6Zm4.12,4.83v5.24h7.92V53.48Zm8.6-18.19H276.1a19.37,19.37,0,0,1-2,6.56c2.16.12,3.36.16,3.56.16C278.82,42,279.34,41.37,279.34,35.29Z"/><path class="cls-1" d="M322.54,64.76h-6.36V41.37h4.92a58.24,58.24,0,0,1-9.68-7.92,58.24,58.24,0,0,1-9.68,7.92h5.52v3.84c0,12.07-2.08,15.51-10,19.95l-3.52-4.92c5.92-3.2,7.24-5.4,7.24-15V41.85c-2.16,1.32-4.28,2.52-6.4,3.56l-2.28-5.08a61.49,61.49,0,0,0,15.08-10.8h8a61.49,61.49,0,0,0,15.08,10.8l-2.28,5.08c-2-1-3.92-2-5.68-3.08Z"/><path class="cls-2" d="M29.9,69.4v1.67a1,1,0,0,0,.06.42.85.85,0,0,0,.22.28,2.53,2.53,0,0,0,4.12-2.61"/><path class="cls-2" d="M28.25,70.86a14,14,0,0,0-1.94,2.69c-.14.45,0,2.73.52,2.73a49.12,49.12,0,0,0,3.42-4.65,2.17,2.17,0,0,1-.35-1.81A8.46,8.46,0,0,0,28.25,70.86Z"/><path class="cls-2" d="M30.25,71.63a12.91,12.91,0,0,0,.7,4.12c.09.24.51,1.24.75,1.34a3.5,3.5,0,0,0,1.53-.31c3.06-1.32,3.36-4.71,3-5.28-.13-.22-1.43-2-1.61-1.6C33.94,71.33,31.14,71.9,30.25,71.63Z"/><path class="cls-3" d="M6.25,64.08A15.38,15.38,0,0,1,2,72.32a10.61,10.61,0,0,0,5.87-5,10.56,10.56,0,0,0,4.55,11,8.45,8.45,0,0,1,.29-5.9,6.23,6.23,0,0,0,3.1,6.11c-.19-.69-.05-1.4-.24-2.08a28.64,28.64,0,0,0,3.92-2.35,8.61,8.61,0,0,0,3-3.1l-2.13,5.5c2.49-.49,4.69-2.5,6.31-4.46s1.89-5.1,5.34-5c.32,0,.62-.2.94-.16a2,2,0,0,1,.83.37A7.5,7.5,0,0,1,35.69,78a12.5,12.5,0,0,0,5.59-3.22L40,77.3a13.44,13.44,0,0,0,5.71-5.54,18.47,18.47,0,0,1-2.64,8.38c3.48-.94,7.29-2.1,9.19-5.16a21.06,21.06,0,0,1-3,5.8A17.52,17.52,0,0,0,57.39,71a9.43,9.43,0,0,0,7.7,5.88,9.06,9.06,0,0,1-3.57-5.1c-2.06-6.22-.94-12.89.43-19.13a61.81,61.81,0,0,0,1.16-19,27.68,27.68,0,0,0-2.94-10C52.43,8.48,37.14,9.3,30.34,10.19a28.5,28.5,0,0,0-17,8.43A26.32,26.32,0,0,0,5,33.89c-1.17,6.37-.81,12.48.88,20.64A31.59,31.59,0,0,1,6.25,64.08Z"/><path class="cls-4" d="M13.18,27.83c-1.58,6.29,0,18.62.82,24.55.42,3.11-3.49,5.8-1.34,9.73-2.53-.73-6.28-3.65-7.91-5.73S.07,49,1,45.11A98.53,98.53,0,0,1,13.18,27.83Z"/><path class="cls-2" d="M12.38,62.59A27.48,27.48,0,0,1,3.3,53c-3.74-6.66-.95-10.06-2.59-8C-1.18,47.25,2.78,58.78,12.38,62.59Z"/><path class="cls-3" d="M5.45,46.21c0,11.21,4.55,19.21,7.16,22a97.4,97.4,0,0,1-.92-11.4"/><path class="cls-2" d="M52.33,62.54C37.7,73.47,24.61,69,19.4,66.83a17.23,17.23,0,0,1-5.75-3.34,7.69,7.69,0,0,1-2.34-5.7c.16-2.16,1.06-3.28,1.45-5.41.44-2.38-.94-4.52-2.06-6.67a18.82,18.82,0,0,1-1.48-13.4c3-11.21,11.43-17.62,23.71-19.53a32.38,32.38,0,0,1,14.86,1.46c8,2.6,11.69,9.56,13.5,17.75s.2,13.78-.85,19C59.82,54.05,54.87,60.65,52.33,62.54Z"/><path class="cls-5" d="M8,27C22.55,5.62,42.05,10.22,47.87,12.85A25.7,25.7,0,0,1,59.79,24.42c2.62,5,3.21,10.23,2.88,15.86C62,52.61,52,59.27,52,56c.21-9.67,1.73-16.45-2.15-23.58-1.65-3-4.46-9.32-7.67-8-16.11,6.43-14.06-9.28-26.43,9.34"/><path class="cls-4" d="M67.13,48.07s.65,2.34-3.42,6.43c-5.38,5.41-12.15,8-14.65,8.38,3.16-6.34,3.49-13.22,4.92-20.14.72-3.53,1-15.46,1-15.46C60.25,33.69,67.13,48.07,67.13,48.07Z"/><path class="cls-2" d="M67,47.8s.15-.56.59.89c.74,2.4-8.64,12.84-18.14,14.12C64.1,56.64,67,47.8,67,47.8Z"/><path class="cls-3" d="M8.49,26.54C3.35,34.69,3.78,45.26,6.91,52.25a21,21,0,0,0,4.87,6.4,57.65,57.65,0,0,1-1.48-8.52c.67,1.74,2.78,5.26,4.26,6.39C10.82,45.75,15.42,33,25,24.25c-2.61,6.84,1.75,19.14,7.72,25.41C37.74,44.1,41,36.15,43,28.88c2.08,8.64,4,19.83,2.25,29.54,1.93-2.68,3.7-6.8,3.55-10.11a57.62,57.62,0,0,1-2,20.71c1.45-1.89,10-8.45,11.39-25.94a36,36,0,0,0-4.64-20.86"/><path class="cls-3" d="M28.94,15.14c-5.08,3.73-6.57,12-6.71,14.89-.18,3.68-.35,7.42.65,11a20.67,20.67,0,0,0,5.51,9.45A22.36,22.36,0,0,1,27,42.91,22.22,22.22,0,0,0,35.8,56.52c-2.46-8-1.7-16.63.28-24.74"/><path class="cls-6" d="M41.27,58.6a1.12,1.12,0,0,0-.38.48"/><path class="cls-6" d="M42.82,58.67a1.57,1.57,0,0,1-.34.47"/><path class="cls-6" d="M16.36,56.89a.82.82,0,0,0-.53.48"/><path class="cls-6" d="M17.71,57.14l-.49.43"/><path class="cls-7" d="M27.73,55.18l-.14.14"/><path class="cls-7" d="M24.69,60c2.49,0,10.19-.64,10.56-.41s2.37,4.48-.16,6.24"/><path class="cls-8" d="M25,61.47A5.4,5.4,0,0,1,24.69,60s2,0,5-.23C30,59.77,26.61,60,25,61.47Z"/><path class="cls-7" d="M17.11,38.22q3.15,2.07,6.45,3.79"/><path class="cls-7" d="M37.25,42q3.91-1,7.9-1.71"/><path class="cls-7" d="M13.48,44.76c3.46,1.87,10,5.61,10,5.61s-6.15,2.32-9.24,3.45"/><path class="cls-7" d="M47.86,47.69c-3.82,1-11,2.87-11,2.87s7.26,4.81,10,6.67"/><path class="cls-8" d="M27.71,75.19a21.57,21.57,0,0,0-2.1,4.7c.16.7,1.73,1,2,1s.43-.88.78-2a28.22,28.22,0,0,1,1.48-4.52,5.52,5.52,0,0,0,.29-1c.24-1.29-.92-.12-1.25.22A13.85,13.85,0,0,0,27.71,75.19Z"/><path class="cls-8" d="M29.53,74.57a17.29,17.29,0,0,0,0,6.21.75.75,0,0,0,.29.55.78.78,0,0,0,.48,0c.59-.06,1.18-.28,1.76-.34,0,0-.76-4.7-.85-5.16-.12-.64-.17-2-.63-2.52S29.63,74.05,29.53,74.57Z"/><path class="cls-8" d="M26.16,74.19a1.56,1.56,0,0,0-.34.39,1.31,1.31,0,0,0-.11.68,4.18,4.18,0,0,0,.53,1.79.57.57,0,0,0,.27.28c.26.1.5-.14.66-.36.81-1.11,1.53-2.28,2.24-3.45.16-.25.68-1,.55-1.32s-.81,0-1.13.19A13.45,13.45,0,0,0,26.16,74.19Z"/><path class="cls-8" d="M31.12,72.12c.38.15,2.67,5.15,2.1,5.58a19.74,19.74,0,0,1-2.42.2.39.39,0,0,1-.16-.33,29.33,29.33,0,0,1-.32-3.74C30.31,73.3,29.75,71.6,31.12,72.12Z"/><path class="cls-8" d="M28.93,73.76l1.24.19a.15.15,0,0,0,.13,0s0-.06,0-.09c.12-.63.27-1.27.34-1.9a1.25,1.25,0,0,0-1.14.21C29.39,72.28,28.76,73.73,28.93,73.76Z"/><path class="cls-3" d="M35.8,8.67A22.33,22.33,0,0,1,38.74.25S32.17,1.63,35.8,8.67Z"/></g></g></g></svg>